SplineFontDB: 3.0
FontName: Oxanium-Medium
FullName: Oxanium Medium
FamilyName: Oxanium
Weight: Medium
Copyright: Copyright 2019 Severin Meyer, with Reserved Font Name Oxanium
Version: 0.000
ItalicAngle: 0
UnderlinePosition: -100
UnderlineWidth: 60
Ascent: 800
Descent: 200
InvalidEm: 0
LayerCount: 2
Layer: 0 1 "Back" 1
Layer: 1 1 "Fore" 0
StyleMap: 0x0040
FSType: 0
OS2Version: 4
OS2_WeightWidthSlopeOnly: 0
OS2_UseTypoMetrics: 1
CreationTime: 1546300800
ModificationTime: 1551033448
PfmFamily: 33
TTFWeight: 500
TTFWidth: 5
LineGap: 250
VLineGap: 0
OS2TypoAscent: 790
OS2TypoAOffset: 0
OS2TypoDescent: -210
OS2TypoDOffset: 0
OS2TypoLinegap: 250
OS2WinAscent: 1000
OS2WinAOffset: 0
OS2WinDescent: 250
OS2WinDOffset: 0
HheadAscent: 790
HheadAOffset: 0
HheadDescent: -210
HheadDOffset: 0
OS2SubXSize: 620
OS2SubYSize: 600
OS2SubXOff: 0
OS2SubYOff: 124
OS2SupXSize: 620
OS2SupYSize: 600
OS2SupXOff: 0
OS2SupYOff: 400
OS2StrikeYSize: 50
OS2StrikeYPos: 250
OS2CapHeight: 690
OS2XHeight: 522
OS2Vendor: '    '
DEI: 91125
LangName: 1033 "" "" "" "" "" "" "" "" "" "Severin Meyer" "" "" "https://sev.dev/fonts/oxanium" "SIL Open Font License 1.1" "http://scripts.sil.org/OFL" "" "Oxanium" "Medium"
Encoding: Custom
UnicodeInterp: none
NameList: AGL For New Fonts
DisplaySize: -48
AntiAlias: 1
FitToEm: 0
WinInfo: 0 32 12
BeginPrivate: 2
BlueValues 41 [-10 0 522 532 690 700 740 750 1000 1010]
OtherBlues 11 [-210 -200]
EndPrivate
BeginChars: 375 375

StartChar: exclam
Encoding: 3 33 3
Width: 265
Flags: W
LayerCount: 2
Fore
SplineSet
75 0 m 1,0,-1
 75 120 l 1,1,-1
 190 120 l 1,2,-1
 190 0 l 1,3,-1
 75 0 l 1,0,-1
82 214 m 1,4,-1
 82 690 l 1,5,-1
 184 690 l 1,6,-1
 184 214 l 1,7,-1
 82 214 l 1,4,-1
EndSplineSet
EndChar

StartChar: numbersign
Encoding: 5 35 5
Width: 672
Flags: W
LayerCount: 2
Fore
SplineSet
50 183 m 1,0,-1
 50 267 l 1,1,-1
 178 267 l 1,2,-1
 178 423 l 1,3,-1
 50 423 l 1,4,-1
 50 507 l 1,5,-1
 178 507 l 1,6,-1
 178 690 l 1,7,-1
 267 690 l 1,8,-1
 267 507 l 1,9,-1
 406 507 l 1,10,-1
 406 690 l 1,11,-1
 495 690 l 1,12,-1
 495 507 l 1,13,-1
 622 507 l 1,14,-1
 622 423 l 1,15,-1
 495 423 l 1,16,-1
 495 267 l 1,17,-1
 622 267 l 1,18,-1
 622 183 l 1,19,-1
 495 183 l 1,20,-1
 495 0 l 1,21,-1
 406 0 l 1,22,-1
 406 183 l 1,23,-1
 267 183 l 1,24,-1
 267 0 l 1,25,-1
 178 0 l 1,26,-1
 178 183 l 1,27,-1
 50 183 l 1,0,-1
267 267 m 1,28,-1
 406 267 l 1,29,-1
 406 423 l 1,30,-1
 267 423 l 1,31,-1
 267 267 l 1,28,-1
EndSplineSet
EndChar

StartChar: dollar
Encoding: 6 36 6
Width: 578
Flags: W
LayerCount: 2
Fore
SplineSet
65 40 m 1,0,-1
 65 92 l 1,1,-1
 354 92 l 2,2,3
 411 92 411 92 411 149 c 2,4,-1
 411 213 l 2,5,6
 411 261 411 261 367 270 c 2,7,-1
 178 308 l 2,8,9
 65 330 65 330 65 460 c 2,10,-1
 65 502 l 2,11,12
 65 660 65 660 223 660 c 2,13,-1
 246 660 l 1,14,-1
 246 780 l 1,15,-1
 332 780 l 1,16,-1
 332 660 l 1,17,-1
 441 660 l 1,18,-1
 493 620 l 1,19,-1
 493 568 l 1,20,-1
 224 568 l 2,21,22
 167 568 167 568 167 511 c 2,23,-1
 167 455 l 2,24,25
 167 407 167 407 211 398 c 2,26,-1
 400 360 l 2,27,28
 513 338 513 338 513 209 c 2,29,-1
 513 158 l 2,30,31
 513 0 513 0 355 0 c 2,32,-1
 332 0 l 1,33,-1
 332 -120 l 1,34,-1
 246 -120 l 1,35,-1
 246 0 l 1,36,-1
 117 0 l 1,37,-1
 65 40 l 1,0,-1
EndSplineSet
EndChar

StartChar: ampersand
Encoding: 8 38 8
Width: 665
Flags: W
LayerCount: 2
Fore
SplineSet
68 154 m 2,0,-1
 68 254 l 2,1,2
 68 306 68 306 101 334 c 2,3,-1
 143 369 l 1,4,-1
 108 411 l 2,5,6
 88 435 88 435 88 469 c 2,7,-1
 88 536 l 2,8,9
 88 690 88 690 241 690 c 2,10,-1
 429 690 l 1,11,-1
 475 656 l 1,12,-1
 475 605 l 1,13,-1
 244 605 l 2,14,15
 185 605 185 605 185 546 c 2,16,-1
 185 465 l 2,17,18
 185 406 185 406 244 406 c 2,19,-1
 625 406 l 1,20,-1
 625 321 l 1,21,-1
 525 321 l 1,22,-1
 525 0 l 1,23,-1
 221 0 l 2,24,25
 68 0 68 0 68 154 c 2,0,-1
165 144 m 2,26,27
 165 85 165 85 224 85 c 2,28,-1
 427 85 l 1,29,-1
 427 321 l 1,30,-1
 224 321 l 2,31,32
 165 321 165 321 165 262 c 2,33,-1
 165 144 l 2,26,27
EndSplineSet
EndChar

StartChar: quotesingle
Encoding: 9 39 9
Width: 224
Flags: W
LayerCount: 2
Fore
SplineSet
68 484 m 1,0,-1
 68 740 l 1,1,-1
 157 740 l 1,2,-1
 157 484 l 1,3,-1
 68 484 l 1,0,-1
EndSplineSet
EndChar

StartChar: parenleft
Encoding: 10 40 10
Width: 321
Flags: W
LayerCount: 2
Fore
SplineSet
68 290 m 128,-1,1
 68 558 68 558 228 773 c 1,2,-1
 302 717 l 1,3,4
 168 529 168 529 168 290 c 128,-1,5
 168 51 168 51 302 -137 c 1,6,-1
 228 -193 l 1,7,0
 68 22 68 22 68 290 c 128,-1,1
EndSplineSet
EndChar

StartChar: parenright
Encoding: 11 41 11
Width: 321
Flags: W
LayerCount: 2
Fore
SplineSet
19 -137 m 1,0,1
 153 51 153 51 153 290 c 128,-1,2
 153 529 153 529 19 717 c 1,3,-1
 93 773 l 1,4,5
 253 558 253 558 253 290 c 128,-1,6
 253 22 253 22 93 -193 c 1,7,-1
 19 -137 l 1,0,1
EndSplineSet
EndChar

StartChar: asterisk
Encoding: 12 42 12
Width: 504
Flags: W
LayerCount: 2
Fore
SplineSet
41 510 m 1,0,-1
 64 579 l 1,1,-1
 214 534 l 1,2,-1
 214 690 l 1,3,-1
 291 690 l 1,4,-1
 291 534 l 1,5,-1
 440 579 l 1,6,-1
 463 510 l 1,7,-1
 316 459 l 1,8,-1
 406 332 l 1,9,-1
 346 289 l 1,10,-1
 252 412 l 1,11,-1
 158 289 l 1,12,-1
 99 332 l 1,13,-1
 189 459 l 1,14,-1
 41 510 l 1,0,-1
EndSplineSet
EndChar

StartChar: plus
Encoding: 13 43 13
Width: 578
Flags: W
LayerCount: 2
Fore
SplineSet
63 293 m 1,0,-1
 63 377 l 1,1,-1
 244 377 l 1,2,-1
 244 570 l 1,3,-1
 334 570 l 1,4,-1
 334 377 l 1,5,-1
 515 377 l 1,6,-1
 515 293 l 1,7,-1
 334 293 l 1,8,-1
 334 100 l 1,9,-1
 244 100 l 1,10,-1
 244 293 l 1,11,-1
 63 293 l 1,0,-1
EndSplineSet
EndChar

StartChar: comma
Encoding: 14 44 14
Width: 265
Flags: W
LayerCount: 2
Fore
SplineSet
29 -125 m 1,0,-1
 82 120 l 1,1,-1
 185 120 l 1,2,-1
 196 104 l 1,3,-1
 102 -143 l 1,4,-1
 29 -125 l 1,0,-1
EndSplineSet
EndChar

StartChar: hyphen
Encoding: 15 45 15
Width: 366
Flags: W
LayerCount: 2
Fore
SplineSet
40 263 m 1,0,-1
 40 347 l 1,1,-1
 326 347 l 1,2,-1
 326 263 l 1,3,-1
 40 263 l 1,0,-1
EndSplineSet
EndChar

StartChar: period
Encoding: 16 46 16
Width: 265
Flags: W
LayerCount: 2
Fore
SplineSet
75 0 m 1,0,-1
 75 120 l 1,1,-1
 190 120 l 1,2,-1
 190 0 l 1,3,-1
 75 0 l 1,0,-1
EndSplineSet
EndChar

StartChar: slash
Encoding: 17 47 17
Width: 404
Flags: W
LayerCount: 2
Fore
SplineSet
20 -22 m 1,0,-1
 301 742 l 1,1,-1
 384 712 l 1,2,-1
 103 -52 l 1,3,-1
 20 -22 l 1,0,-1
EndSplineSet
EndChar

StartChar: zero
Encoding: 18 48 18
Width: 578
Flags: W
LayerCount: 2
Fore
SplineSet
60 158 m 2,0,-1
 60 532 l 2,1,2
 60 690 60 690 218 690 c 2,3,-1
 360 690 l 2,4,5
 518 690 518 690 518 532 c 2,6,-1
 518 158 l 2,7,8
 518 0 518 0 360 0 c 2,9,-1
 218 0 l 2,10,11
 60 0 60 0 60 158 c 2,0,-1
162 149 m 2,12,13
 162 92 162 92 219 92 c 2,14,-1
 359 92 l 2,15,16
 416 92 416 92 416 149 c 2,17,-1
 416 541 l 2,18,19
 416 598 416 598 359 598 c 2,20,-1
 219 598 l 2,21,22
 162 598 162 598 162 541 c 2,23,-1
 162 149 l 2,12,13
EndSplineSet
EndChar

StartChar: one
Encoding: 19 49 19
Width: 578
Flags: W
LayerCount: 2
Fore
SplineSet
88 0 m 1,0,-1
 88 92 l 1,1,-1
 254 92 l 1,2,-1
 254 598 l 1,3,-1
 120 598 l 1,4,-1
 120 650 l 1,5,-1
 172 690 l 1,6,-1
 356 690 l 1,7,-1
 356 92 l 1,8,-1
 506 92 l 1,9,-1
 506 0 l 1,10,-1
 88 0 l 1,0,-1
EndSplineSet
EndChar

StartChar: two
Encoding: 20 50 20
Width: 578
Flags: W
LayerCount: 2
Fore
SplineSet
60 0 m 1,0,-1
 60 214 l 2,1,2
 60 344 60 344 173 366 c 2,3,-1
 372 406 l 2,4,5
 416 415 416 415 416 463 c 2,6,-1
 416 541 l 2,7,8
 416 598 416 598 359 598 c 2,9,-1
 80 598 l 1,10,-1
 80 650 l 1,11,-1
 132 690 l 1,12,-1
 360 690 l 2,13,14
 518 690 518 690 518 532 c 2,15,-1
 518 468 l 2,16,17
 518 338 518 338 405 316 c 2,18,-1
 206 276 l 2,19,20
 162 267 162 267 162 219 c 2,21,-1
 162 92 l 1,22,-1
 518 92 l 1,23,-1
 518 0 l 1,24,-1
 60 0 l 1,0,-1
EndSplineSet
EndChar

StartChar: three
Encoding: 21 51 21
Width: 578
Flags: W
LayerCount: 2
Fore
SplineSet
70 40 m 1,0,-1
 70 92 l 1,1,-1
 359 92 l 2,2,3
 416 92 416 92 416 149 c 2,4,-1
 416 257 l 2,5,6
 416 314 416 314 359 314 c 2,7,-1
 144 314 l 1,8,-1
 144 406 l 1,9,-1
 359 406 l 2,10,11
 416 406 416 406 416 463 c 2,12,-1
 416 541 l 2,13,14
 416 598 416 598 359 598 c 2,15,-1
 80 598 l 1,16,-1
 80 650 l 1,17,-1
 132 690 l 1,18,-1
 360 690 l 2,19,20
 518 690 518 690 518 532 c 2,21,-1
 518 462 l 2,22,23
 518 422 518 422 493 397 c 2,24,-1
 458 362 l 1,25,-1
 493 327 l 2,26,27
 518 302 518 302 518 262 c 2,28,-1
 518 158 l 2,29,30
 518 0 518 0 360 0 c 2,31,-1
 122 0 l 1,32,-1
 70 40 l 1,0,-1
EndSplineSet
EndChar

StartChar: four
Encoding: 22 52 22
Width: 578
Flags: W
LayerCount: 2
Fore
SplineSet
60 121 m 1,0,-1
 60 205 l 1,1,-1
 285 690 l 1,2,-1
 371 690 l 1,3,-1
 384 667 l 1,4,-1
 173 213 l 1,5,-1
 416 213 l 1,6,-1
 416 430 l 1,7,-1
 518 430 l 1,8,-1
 518 0 l 1,9,-1
 416 0 l 1,10,-1
 416 121 l 1,11,-1
 60 121 l 1,0,-1
EndSplineSet
EndChar

StartChar: five
Encoding: 23 53 23
Width: 578
Flags: W
LayerCount: 2
Fore
SplineSet
50 40 m 1,0,-1
 50 92 l 1,1,-1
 359 92 l 2,2,3
 416 92 416 92 416 149 c 2,4,-1
 416 267 l 2,5,6
 416 324 416 324 359 324 c 2,7,-1
 60 324 l 1,8,-1
 60 690 l 1,9,-1
 488 690 l 1,10,-1
 488 598 l 1,11,-1
 162 598 l 1,12,-1
 162 416 l 1,13,-1
 360 416 l 2,14,15
 518 416 518 416 518 258 c 2,16,-1
 518 158 l 2,17,18
 518 0 518 0 360 0 c 2,19,-1
 102 0 l 1,20,-1
 50 40 l 1,0,-1
EndSplineSet
EndChar

StartChar: six
Encoding: 24 54 24
Width: 578
Flags: W
LayerCount: 2
Fore
SplineSet
60 158 m 2,0,-1
 60 501 l 2,1,2
 60 690 60 690 250 690 c 2,3,-1
 426 690 l 1,4,-1
 478 650 l 1,5,-1
 478 598 l 1,6,-1
 246 598 l 2,7,8
 162 598 162 598 162 514 c 2,9,-1
 162 416 l 1,10,-1
 360 416 l 2,11,12
 518 416 518 416 518 258 c 2,13,-1
 518 158 l 2,14,15
 518 0 518 0 360 0 c 2,16,-1
 218 0 l 2,17,18
 60 0 60 0 60 158 c 2,0,-1
162 149 m 2,19,20
 162 92 162 92 219 92 c 2,21,-1
 359 92 l 2,22,23
 416 92 416 92 416 149 c 2,24,-1
 416 267 l 2,25,26
 416 324 416 324 359 324 c 2,27,-1
 162 324 l 1,28,-1
 162 149 l 2,19,20
EndSplineSet
EndChar

StartChar: seven
Encoding: 25 55 25
Width: 578
Flags: W
LayerCount: 2
Fore
SplineSet
60 598 m 1,0,-1
 60 690 l 1,1,-1
 518 690 l 1,2,-1
 518 503 l 1,3,-1
 254 0 l 1,4,-1
 163 0 l 1,5,-1
 150 23 l 1,6,-1
 416 525 l 1,7,-1
 416 598 l 1,8,-1
 60 598 l 1,0,-1
EndSplineSet
EndChar

StartChar: eight
Encoding: 26 56 26
Width: 578
Flags: W
LayerCount: 2
Fore
SplineSet
60 158 m 2,0,-1
 60 262 l 2,1,2
 60 302 60 302 85 327 c 2,3,-1
 120 362 l 1,4,-1
 85 397 l 2,5,6
 60 422 60 422 60 462 c 2,7,-1
 60 532 l 2,8,9
 60 690 60 690 218 690 c 2,10,-1
 360 690 l 2,11,12
 518 690 518 690 518 532 c 2,13,-1
 518 462 l 2,14,15
 518 422 518 422 493 397 c 2,16,-1
 458 362 l 1,17,-1
 493 327 l 2,18,19
 518 302 518 302 518 262 c 2,20,-1
 518 158 l 2,21,22
 518 0 518 0 360 0 c 2,23,-1
 218 0 l 2,24,25
 60 0 60 0 60 158 c 2,0,-1
162 149 m 2,26,27
 162 92 162 92 219 92 c 2,28,-1
 359 92 l 2,29,30
 416 92 416 92 416 149 c 2,31,-1
 416 257 l 2,32,33
 416 314 416 314 359 314 c 2,34,-1
 219 314 l 2,35,36
 162 314 162 314 162 257 c 2,37,-1
 162 149 l 2,26,27
162 463 m 2,38,39
 162 406 162 406 219 406 c 2,40,-1
 359 406 l 2,41,42
 416 406 416 406 416 463 c 2,43,-1
 416 541 l 2,44,45
 416 598 416 598 359 598 c 2,46,-1
 219 598 l 2,47,48
 162 598 162 598 162 541 c 2,49,-1
 162 463 l 2,38,39
EndSplineSet
EndChar

StartChar: nine
Encoding: 27 57 27
Width: 578
Flags: W
LayerCount: 2
Fore
SplineSet
60 431 m 2,0,-1
 60 532 l 2,1,2
 60 690 60 690 218 690 c 2,3,-1
 360 690 l 2,4,5
 518 690 518 690 518 532 c 2,6,-1
 518 189 l 2,7,8
 518 0 518 0 328 0 c 2,9,-1
 142 0 l 1,10,-1
 90 40 l 1,11,-1
 90 92 l 1,12,-1
 332 92 l 2,13,14
 416 92 416 92 416 176 c 2,15,-1
 416 274 l 1,16,-1
 218 274 l 2,17,18
 60 274 60 274 60 431 c 2,0,-1
162 423 m 2,19,20
 162 366 162 366 219 366 c 2,21,-1
 416 366 l 1,22,-1
 416 541 l 2,23,24
 416 598 416 598 359 598 c 2,25,-1
 219 598 l 2,26,27
 162 598 162 598 162 541 c 2,28,-1
 162 423 l 2,19,20
EndSplineSet
EndChar

StartChar: less
Encoding: 30 60 30
Width: 578
Flags: W
LayerCount: 2
Fore
SplineSet
64 288 m 1,0,-1
 64 382 l 1,1,-1
 481 581 l 1,2,-1
 517 506 l 1,3,-1
 152 335 l 1,4,-1
 517 164 l 1,5,-1
 481 89 l 1,6,-1
 64 288 l 1,0,-1
EndSplineSet
EndChar

StartChar: equal
Encoding: 31 61 31
Width: 578
Flags: W
LayerCount: 2
Fore
SplineSet
63 183 m 1,0,-1
 63 267 l 1,1,-1
 515 267 l 1,2,-1
 515 183 l 1,3,-1
 63 183 l 1,0,-1
63 403 m 1,4,-1
 63 487 l 1,5,-1
 515 487 l 1,6,-1
 515 403 l 1,7,-1
 63 403 l 1,4,-1
EndSplineSet
EndChar

StartChar: greater
Encoding: 32 62 32
Width: 578
Flags: W
LayerCount: 2
Fore
SplineSet
61 164 m 1,0,-1
 426 335 l 1,1,-1
 61 506 l 1,2,-1
 97 581 l 1,3,-1
 514 382 l 1,4,-1
 514 288 l 1,5,-1
 97 89 l 1,6,-1
 61 164 l 1,0,-1
EndSplineSet
EndChar

StartChar: question
Encoding: 33 63 33
Width: 507
Flags: W
LayerCount: 2
Fore
SplineSet
40 598 m 1,0,-1
 40 650 l 1,1,-1
 92 690 l 1,2,-1
 300 690 l 2,3,4
 457 690 457 690 457 532 c 2,5,-1
 457 444 l 2,6,7
 457 287 457 287 300 287 c 2,8,-1
 267 287 l 1,9,-1
 267 214 l 1,10,-1
 165 214 l 1,11,-1
 165 379 l 1,12,-1
 299 379 l 2,13,14
 355 379 355 379 355 436 c 2,15,-1
 355 541 l 2,16,17
 355 598 355 598 299 598 c 2,18,-1
 40 598 l 1,0,-1
158 0 m 1,19,-1
 158 120 l 1,20,-1
 273 120 l 1,21,-1
 273 0 l 1,22,-1
 158 0 l 1,19,-1
EndSplineSet
EndChar

StartChar: at
Encoding: 34 64 34
Width: 802
Flags: W
LayerCount: 2
Fore
SplineSet
88 10 m 2,0,-1
 88 540 l 2,1,2
 88 690 88 690 237 690 c 2,3,-1
 715 690 l 1,4,-1
 715 60 l 1,5,-1
 461 60 l 2,6,7
 308 60 308 60 308 214 c 2,8,-1
 308 336 l 2,9,10
 308 490 308 490 461 490 c 2,11,-1
 626 490 l 1,12,-1
 626 613 l 1,13,-1
 238 613 l 2,14,15
 177 613 177 613 177 551 c 2,16,-1
 177 -1 l 2,17,18
 177 -63 177 -63 238 -63 c 2,19,-1
 695 -63 l 1,20,-1
 695 -106 l 1,21,-1
 649 -140 l 1,22,-1
 237 -140 l 2,23,24
 88 -140 88 -140 88 10 c 2,0,-1
405 204 m 2,25,26
 405 145 405 145 464 145 c 2,27,-1
 617 145 l 1,28,-1
 617 405 l 1,29,-1
 464 405 l 2,30,31
 405 405 405 405 405 346 c 2,32,-1
 405 204 l 2,25,26
EndSplineSet
EndChar

StartChar: A
Encoding: 35 65 35
Width: 641
Flags: W
LayerCount: 2
Fore
SplineSet
19 21 m 1,0,-1
 239 690 l 1,1,-1
 402 690 l 1,2,-1
 621 21 l 1,3,-1
 608 0 l 1,4,-1
 523 0 l 1,5,-1
 471 164 l 1,6,-1
 170 164 l 1,7,-1
 118 0 l 1,8,-1
 33 0 l 1,9,-1
 19 21 l 1,0,-1
199 256 m 1,10,-1
 442 256 l 1,11,-1
 331 598 l 1,12,-1
 310 598 l 1,13,-1
 199 256 l 1,10,-1
EndSplineSet
EndChar

StartChar: B
Encoding: 36 66 36
Width: 646
Flags: W
LayerCount: 2
Fore
SplineSet
88 0 m 1,0,-1
 88 690 l 1,1,-1
 407 690 l 2,2,3
 565 690 565 690 565 532 c 2,4,-1
 565 466 l 2,5,6
 565 432 565 432 545 408 c 2,7,-1
 510 366 l 1,8,-1
 552 331 l 2,9,10
 585 304 585 304 585 251 c 2,11,-1
 585 158 l 2,12,13
 585 0 585 0 427 0 c 2,14,-1
 88 0 l 1,0,-1
190 92 m 1,15,-1
 426 92 l 2,16,17
 483 92 483 92 483 149 c 2,18,-1
 483 257 l 2,19,20
 483 314 483 314 426 314 c 2,21,-1
 190 314 l 1,22,-1
 190 92 l 1,15,-1
190 406 m 1,23,-1
 406 406 l 2,24,25
 463 406 463 406 463 463 c 2,26,-1
 463 541 l 2,27,28
 463 598 463 598 406 598 c 2,29,-1
 190 598 l 1,30,-1
 190 406 l 1,23,-1
EndSplineSet
EndChar

StartChar: C
Encoding: 37 67 37
Width: 614
Flags: W
LayerCount: 2
Fore
SplineSet
78 158 m 2,0,-1
 78 532 l 2,1,2
 78 690 78 690 235 690 c 2,3,-1
 513 690 l 1,4,-1
 564 650 l 1,5,-1
 564 598 l 1,6,-1
 236 598 l 2,7,8
 180 598 180 598 180 541 c 2,9,-1
 180 149 l 2,10,11
 180 92 180 92 236 92 c 2,12,-1
 564 92 l 1,13,-1
 564 40 l 1,14,-1
 513 0 l 1,15,-1
 235 0 l 2,16,17
 78 0 78 0 78 158 c 2,0,-1
EndSplineSet
EndChar

StartChar: D
Encoding: 38 68 38
Width: 682
Flags: W
LayerCount: 2
Fore
SplineSet
88 0 m 1,0,-1
 88 690 l 1,1,-1
 355 690 l 2,2,3
 615 690 615 690 615 430 c 2,4,-1
 615 260 l 2,5,6
 615 0 615 0 355 0 c 2,7,-1
 88 0 l 1,0,-1
190 92 m 1,8,-1
 361 92 l 2,9,10
 513 92 513 92 513 244 c 2,11,-1
 513 446 l 2,12,13
 513 598 513 598 361 598 c 2,14,-1
 190 598 l 1,15,-1
 190 92 l 1,8,-1
EndSplineSet
EndChar

StartChar: E
Encoding: 39 69 39
Width: 594
Flags: W
LayerCount: 2
Fore
SplineSet
88 0 m 1,0,-1
 88 690 l 1,1,-1
 544 690 l 1,2,-1
 544 598 l 1,3,-1
 190 598 l 1,4,-1
 190 406 l 1,5,-1
 514 406 l 1,6,-1
 514 314 l 1,7,-1
 190 314 l 1,8,-1
 190 92 l 1,9,-1
 544 92 l 1,10,-1
 544 0 l 1,11,-1
 88 0 l 1,0,-1
EndSplineSet
EndChar

StartChar: F
Encoding: 40 70 40
Width: 574
Flags: W
LayerCount: 2
Fore
SplineSet
88 0 m 1,0,-1
 88 690 l 1,1,-1
 544 690 l 1,2,-1
 544 598 l 1,3,-1
 190 598 l 1,4,-1
 190 376 l 1,5,-1
 514 376 l 1,6,-1
 514 284 l 1,7,-1
 190 284 l 1,8,-1
 190 0 l 1,9,-1
 88 0 l 1,0,-1
EndSplineSet
EndChar

StartChar: G
Encoding: 41 71 41
Width: 672
Flags: W
LayerCount: 2
Fore
SplineSet
78 158 m 2,0,-1
 78 532 l 2,1,2
 78 690 78 690 235 690 c 2,3,-1
 533 690 l 1,4,-1
 585 650 l 1,5,-1
 585 598 l 1,6,-1
 236 598 l 2,7,8
 180 598 180 598 180 541 c 2,9,-1
 180 149 l 2,10,11
 180 92 180 92 236 92 c 2,12,-1
 503 92 l 1,13,-1
 503 314 l 1,14,-1
 344 314 l 1,15,-1
 344 406 l 1,16,-1
 605 406 l 1,17,-1
 605 0 l 1,18,-1
 235 0 l 2,19,20
 78 0 78 0 78 158 c 2,0,-1
EndSplineSet
EndChar

StartChar: H
Encoding: 42 72 42
Width: 702
Flags: W
LayerCount: 2
Fore
SplineSet
88 0 m 1,0,-1
 88 690 l 1,1,-1
 190 690 l 1,2,-1
 190 406 l 1,3,-1
 513 406 l 1,4,-1
 513 690 l 1,5,-1
 615 690 l 1,6,-1
 615 0 l 1,7,-1
 513 0 l 1,8,-1
 513 314 l 1,9,-1
 190 314 l 1,10,-1
 190 0 l 1,11,-1
 88 0 l 1,0,-1
EndSplineSet
EndChar

StartChar: I
Encoding: 43 73 43
Width: 277
Flags: W
LayerCount: 2
Fore
SplineSet
88 0 m 1,0,-1
 88 690 l 1,1,-1
 190 690 l 1,2,-1
 190 0 l 1,3,-1
 88 0 l 1,0,-1
EndSplineSet
EndChar

StartChar: J
Encoding: 44 74 44
Width: 606
Flags: W
LayerCount: 2
Fore
SplineSet
58 158 m 2,0,-1
 58 272 l 1,1,-1
 160 272 l 1,2,-1
 160 149 l 2,3,4
 160 92 160 92 216 92 c 2,5,-1
 366 92 l 2,6,7
 423 92 423 92 423 149 c 2,8,-1
 423 598 l 1,9,-1
 208 598 l 1,10,-1
 208 690 l 1,11,-1
 525 690 l 1,12,-1
 525 158 l 2,13,14
 525 0 525 0 367 0 c 2,15,-1
 215 0 l 2,16,17
 58 0 58 0 58 158 c 2,0,-1
EndSplineSet
EndChar

StartChar: K
Encoding: 45 75 45
Width: 643
Flags: W
LayerCount: 2
Fore
SplineSet
88 0 m 1,0,-1
 88 690 l 1,1,-1
 190 690 l 1,2,-1
 190 360 l 1,3,-1
 485 690 l 1,4,-1
 579 690 l 1,5,-1
 590 668 l 1,6,-1
 354 406 l 1,7,-1
 613 22 l 1,8,-1
 603 0 l 1,9,-1
 509 0 l 1,10,-1
 288 332 l 1,11,-1
 190 224 l 1,12,-1
 190 0 l 1,13,-1
 88 0 l 1,0,-1
EndSplineSet
EndChar

StartChar: L
Encoding: 46 76 46
Width: 538
Flags: W
LayerCount: 2
Fore
SplineSet
88 0 m 1,0,-1
 88 690 l 1,1,-1
 190 690 l 1,2,-1
 190 92 l 1,3,-1
 514 92 l 1,4,-1
 514 0 l 1,5,-1
 88 0 l 1,0,-1
EndSplineSet
EndChar

StartChar: M
Encoding: 47 77 47
Width: 878
Flags: W
LayerCount: 2
Fore
SplineSet
88 0 m 1,0,-1
 88 690 l 1,1,-1
 217 690 l 1,2,-1
 439 216 l 1,3,-1
 662 690 l 1,4,-1
 791 690 l 1,5,-1
 791 0 l 1,6,-1
 689 0 l 1,7,-1
 689 526 l 1,8,-1
 488 97 l 1,9,-1
 391 97 l 1,10,-1
 190 526 l 1,11,-1
 190 0 l 1,12,-1
 88 0 l 1,0,-1
EndSplineSet
EndChar

StartChar: N
Encoding: 48 78 48
Width: 725
Flags: W
LayerCount: 2
Fore
SplineSet
88 0 m 1,0,-1
 88 690 l 1,1,-1
 200 690 l 1,2,-1
 536 162 l 1,3,-1
 536 690 l 1,4,-1
 638 690 l 1,5,-1
 638 0 l 1,6,-1
 526 0 l 1,7,-1
 190 528 l 1,8,-1
 190 0 l 1,9,-1
 88 0 l 1,0,-1
EndSplineSet
EndChar

StartChar: O
Encoding: 49 79 49
Width: 702
Flags: W
LayerCount: 2
Fore
SplineSet
78 158 m 2,0,-1
 78 532 l 2,1,2
 78 690 78 690 235 690 c 2,3,-1
 467 690 l 2,4,5
 625 690 625 690 625 532 c 2,6,-1
 625 158 l 2,7,8
 625 0 625 0 467 0 c 2,9,-1
 235 0 l 2,10,11
 78 0 78 0 78 158 c 2,0,-1
180 149 m 2,12,13
 180 92 180 92 236 92 c 2,14,-1
 466 92 l 2,15,16
 523 92 523 92 523 149 c 2,17,-1
 523 541 l 2,18,19
 523 598 523 598 466 598 c 2,20,-1
 236 598 l 2,21,22
 180 598 180 598 180 541 c 2,23,-1
 180 149 l 2,12,13
EndSplineSet
EndChar

StartChar: P
Encoding: 50 80 50
Width: 632
Flags: W
LayerCount: 2
Fore
SplineSet
88 0 m 1,0,-1
 88 690 l 1,1,-1
 417 690 l 2,2,3
 575 690 575 690 575 532 c 2,4,-1
 575 401 l 2,5,6
 575 244 575 244 417 244 c 2,7,-1
 190 244 l 1,8,-1
 190 0 l 1,9,-1
 88 0 l 1,0,-1
190 336 m 1,10,-1
 416 336 l 2,11,12
 473 336 473 336 473 393 c 2,13,-1
 473 541 l 2,14,15
 473 598 473 598 416 598 c 2,16,-1
 190 598 l 1,17,-1
 190 336 l 1,10,-1
EndSplineSet
EndChar

StartChar: Q
Encoding: 51 81 51
Width: 702
Flags: W
LayerCount: 2
Fore
SplineSet
78 158 m 2,0,-1
 78 532 l 2,1,2
 78 690 78 690 235 690 c 2,3,-1
 467 690 l 2,4,5
 625 690 625 690 625 532 c 2,6,-1
 625 158 l 2,7,8
 625 17 625 17 500 2 c 1,9,-1
 566 -127 l 1,10,-1
 554 -150 l 1,11,-1
 467 -150 l 1,12,-1
 391 0 l 1,13,-1
 235 0 l 2,14,15
 78 0 78 0 78 158 c 2,0,-1
180 149 m 2,16,17
 180 92 180 92 236 92 c 2,18,-1
 466 92 l 2,19,20
 523 92 523 92 523 149 c 2,21,-1
 523 541 l 2,22,23
 523 598 523 598 466 598 c 2,24,-1
 236 598 l 2,25,26
 180 598 180 598 180 541 c 2,27,-1
 180 149 l 2,16,17
EndSplineSet
EndChar

StartChar: R
Encoding: 52 82 52
Width: 642
Flags: W
LayerCount: 2
Fore
SplineSet
88 0 m 1,0,-1
 88 690 l 1,1,-1
 417 690 l 2,2,3
 575 690 575 690 575 532 c 2,4,-1
 575 421 l 2,5,6
 575 293 575 293 469 269 c 1,7,-1
 595 23 l 1,8,-1
 582 0 l 1,9,-1
 495 0 l 1,10,-1
 361 264 l 1,11,-1
 190 264 l 1,12,-1
 190 0 l 1,13,-1
 88 0 l 1,0,-1
190 356 m 1,14,-1
 416 356 l 2,15,16
 473 356 473 356 473 413 c 2,17,-1
 473 541 l 2,18,19
 473 598 473 598 416 598 c 2,20,-1
 190 598 l 1,21,-1
 190 356 l 1,14,-1
EndSplineSet
EndChar

StartChar: S
Encoding: 53 83 53
Width: 582
Flags: W
LayerCount: 2
Fore
SplineSet
58 40 m 1,0,-1
 58 92 l 1,1,-1
 366 92 l 2,2,3
 423 92 423 92 423 149 c 2,4,-1
 423 228 l 2,5,6
 423 276 423 276 380 285 c 2,7,-1
 171 327 l 2,8,9
 58 349 58 349 58 479 c 2,10,-1
 58 532 l 2,11,12
 58 690 58 690 215 690 c 2,13,-1
 453 690 l 1,14,-1
 505 650 l 1,15,-1
 505 598 l 1,16,-1
 216 598 l 2,17,18
 160 598 160 598 160 541 c 2,19,-1
 160 474 l 2,20,21
 160 426 160 426 203 417 c 2,22,-1
 412 376 l 2,23,24
 525 353 525 353 525 224 c 2,25,-1
 525 158 l 2,26,27
 525 0 525 0 367 0 c 2,28,-1
 109 0 l 1,29,-1
 58 40 l 1,0,-1
EndSplineSet
EndChar

StartChar: T
Encoding: 54 84 54
Width: 598
Flags: W
LayerCount: 2
Fore
SplineSet
24 598 m 1,0,-1
 24 690 l 1,1,-1
 574 690 l 1,2,-1
 574 598 l 1,3,-1
 350 598 l 1,4,-1
 350 0 l 1,5,-1
 248 0 l 1,6,-1
 248 598 l 1,7,-1
 24 598 l 1,0,-1
EndSplineSet
EndChar

StartChar: U
Encoding: 55 85 55
Width: 690
Flags: W
LayerCount: 2
Fore
SplineSet
82 158 m 2,0,-1
 82 690 l 1,1,-1
 184 690 l 1,2,-1
 184 149 l 2,3,4
 184 92 184 92 240 92 c 2,5,-1
 450 92 l 2,6,7
 507 92 507 92 507 149 c 2,8,-1
 507 690 l 1,9,-1
 609 690 l 1,10,-1
 609 158 l 2,11,12
 609 0 609 0 451 0 c 2,13,-1
 239 0 l 2,14,15
 82 0 82 0 82 158 c 2,0,-1
EndSplineSet
EndChar

StartChar: V
Encoding: 56 86 56
Width: 631
Flags: W
LayerCount: 2
Fore
SplineSet
19 669 m 1,0,-1
 33 690 l 1,1,-1
 121 690 l 1,2,-1
 305 92 l 1,3,-1
 326 92 l 1,4,-1
 510 690 l 1,5,-1
 598 690 l 1,6,-1
 611 669 l 1,7,-1
 400 0 l 1,8,-1
 231 0 l 1,9,-1
 19 669 l 1,0,-1
EndSplineSet
EndChar

StartChar: W
Encoding: 57 87 57
Width: 931
Flags: W
LayerCount: 2
Fore
SplineSet
29 669 m 1,0,-1
 44 690 l 1,1,-1
 128 690 l 1,2,-1
 260 92 l 1,3,-1
 274 92 l 1,4,-1
 416 617 l 1,5,-1
 515 617 l 1,6,-1
 657 92 l 1,7,-1
 671 92 l 1,8,-1
 803 690 l 1,9,-1
 886 690 l 1,10,-1
 901 669 l 1,11,-1
 750 0 l 1,12,-1
 583 0 l 1,13,-1
 465 445 l 1,14,-1
 348 0 l 1,15,-1
 181 0 l 1,16,-1
 29 669 l 1,0,-1
EndSplineSet
EndChar

StartChar: X
Encoding: 58 88 58
Width: 621
Flags: W
LayerCount: 2
Fore
SplineSet
29 22 m 1,0,-1
 254 355 l 1,1,-1
 42 668 l 1,2,-1
 53 690 l 1,3,-1
 142 690 l 1,4,-1
 310 435 l 1,5,-1
 479 690 l 1,6,-1
 568 690 l 1,7,-1
 578 668 l 1,8,-1
 367 355 l 1,9,-1
 591 22 l 1,10,-1
 581 0 l 1,11,-1
 492 0 l 1,12,-1
 310 275 l 1,13,-1
 129 0 l 1,14,-1
 40 0 l 1,15,-1
 29 22 l 1,0,-1
EndSplineSet
EndChar

StartChar: Y
Encoding: 59 89 59
Width: 591
Flags: W
LayerCount: 2
Fore
SplineSet
19 669 m 1,0,-1
 32 690 l 1,1,-1
 119 690 l 1,2,-1
 295 358 l 1,3,-1
 472 690 l 1,4,-1
 559 690 l 1,5,-1
 571 669 l 1,6,-1
 346 252 l 1,7,-1
 346 0 l 1,8,-1
 244 0 l 1,9,-1
 244 252 l 1,10,-1
 19 669 l 1,0,-1
EndSplineSet
EndChar

StartChar: Z
Encoding: 60 90 60
Width: 602
Flags: W
LayerCount: 2
Fore
SplineSet
48 0 m 1,0,-1
 48 80 l 1,1,-1
 417 598 l 1,2,-1
 58 598 l 1,3,-1
 58 690 l 1,4,-1
 545 690 l 1,5,-1
 545 610 l 1,6,-1
 175 92 l 1,7,-1
 555 92 l 1,8,-1
 555 0 l 1,9,-1
 48 0 l 1,0,-1
EndSplineSet
EndChar

StartChar: bracketleft
Encoding: 61 91 61
Width: 353
Flags: W
LayerCount: 2
Fore
SplineSet
88 -180 m 1,0,-1
 88 760 l 1,1,-1
 323 760 l 1,2,-1
 323 675 l 1,3,-1
 185 675 l 1,4,-1
 185 -95 l 1,5,-1
 323 -95 l 1,6,-1
 323 -180 l 1,7,-1
 88 -180 l 1,0,-1
EndSplineSet
EndChar

StartChar: backslash
Encoding: 62 92 62
Width: 404
Flags: W
LayerCount: 2
Fore
SplineSet
20 712 m 1,0,-1
 103 742 l 1,1,-1
 384 -22 l 1,2,-1
 301 -52 l 1,3,-1
 20 712 l 1,0,-1
EndSplineSet
EndChar

StartChar: bracketright
Encoding: 63 93 63
Width: 353
Flags: W
LayerCount: 2
Fore
SplineSet
30 -95 m 1,0,-1
 168 -95 l 1,1,-1
 168 675 l 1,2,-1
 30 675 l 1,3,-1
 30 760 l 1,4,-1
 265 760 l 1,5,-1
 265 -180 l 1,6,-1
 30 -180 l 1,7,-1
 30 -95 l 1,0,-1
EndSplineSet
EndChar

StartChar: asciicircum
Encoding: 64 94 64
Width: 547
Flags: W
LayerCount: 2
Fore
SplineSet
38 348 m 1,0,-1
 226 690 l 1,1,-1
 321 690 l 1,2,-1
 510 348 l 1,3,-1
 434 306 l 1,4,-1
 274 600 l 1,5,-1
 113 306 l 1,6,-1
 38 348 l 1,0,-1
EndSplineSet
EndChar

StartChar: underscore
Encoding: 65 95 65
Width: 580
Flags: W
LayerCount: 2
Fore
SplineSet
40 -116 m 1,0,-1
 540 -116 l 1,1,-1
 540 -200 l 1,2,-1
 40 -200 l 1,3,-1
 40 -116 l 1,0,-1
EndSplineSet
EndChar

StartChar: a
Encoding: 67 97 67
Width: 544
Flags: W
LayerCount: 2
Fore
SplineSet
204 0 m 2,0,1
 50 0 50 0 50 154 c 128,-1,2
 50 308 50 308 204 308 c 2,3,-1
 373 308 l 1,4,-1
 373 379 l 2,5,6
 373 437 373 437 315 437 c 2,7,-1
 101 437 l 1,8,-1
 101 488 l 1,9,-1
 147 522 l 1,10,-1
 317 522 l 2,11,12
 471 522 471 522 471 369 c 2,13,-1
 471 0 l 1,14,-1
 204 0 l 2,0,1
147 144 m 2,15,16
 147 85 147 85 206 85 c 2,17,-1
 373 85 l 1,18,-1
 373 226 l 1,19,-1
 206 226 l 2,20,21
 147 226 147 226 147 168 c 2,22,-1
 147 144 l 2,15,16
EndSplineSet
EndChar

StartChar: b
Encoding: 68 98 68
Width: 584
Flags: W
LayerCount: 2
Fore
SplineSet
78 0 m 1,0,-1
 78 740 l 1,1,-1
 175 740 l 1,2,-1
 175 522 l 1,3,-1
 361 522 l 2,4,5
 515 522 515 522 515 369 c 2,6,-1
 515 154 l 2,7,8
 515 0 515 0 361 0 c 2,9,-1
 78 0 l 1,0,-1
175 85 m 1,10,-1
 359 85 l 2,11,12
 417 85 417 85 417 144 c 2,13,-1
 417 379 l 2,14,15
 417 437 417 437 359 437 c 2,16,-1
 175 437 l 1,17,-1
 175 85 l 1,10,-1
EndSplineSet
EndChar

StartChar: c
Encoding: 69 99 69
Width: 508
Flags: W
LayerCount: 2
Fore
SplineSet
70 154 m 2,0,-1
 70 369 l 2,1,2
 70 522 70 522 223 522 c 2,3,-1
 416 522 l 1,4,-1
 462 488 l 1,5,-1
 462 437 l 1,6,-1
 226 437 l 2,7,8
 167 437 167 437 167 379 c 2,9,-1
 167 144 l 2,10,11
 167 85 167 85 226 85 c 2,12,-1
 462 85 l 1,13,-1
 462 34 l 1,14,-1
 416 0 l 1,15,-1
 223 0 l 2,16,17
 70 0 70 0 70 154 c 2,0,-1
EndSplineSet
EndChar

StartChar: d
Encoding: 70 100 70
Width: 584
Flags: W
LayerCount: 2
Fore
SplineSet
70 154 m 2,0,-1
 70 369 l 2,1,2
 70 522 70 522 223 522 c 2,3,-1
 409 522 l 1,4,-1
 409 740 l 1,5,-1
 507 740 l 1,6,-1
 507 0 l 1,7,-1
 223 0 l 2,8,9
 70 0 70 0 70 154 c 2,0,-1
167 144 m 2,10,11
 167 85 167 85 226 85 c 2,12,-1
 409 85 l 1,13,-1
 409 437 l 1,14,-1
 226 437 l 2,15,16
 167 437 167 437 167 379 c 2,17,-1
 167 144 l 2,10,11
EndSplineSet
EndChar

StartChar: e
Encoding: 71 101 71
Width: 576
Flags: W
LayerCount: 2
Fore
SplineSet
70 154 m 2,0,-1
 70 369 l 2,1,2
 70 522 70 522 223 522 c 2,3,-1
 353 522 l 2,4,5
 507 522 507 522 507 369 c 2,6,-1
 507 221 l 1,7,-1
 167 221 l 1,8,-1
 167 144 l 2,9,10
 167 85 167 85 226 85 c 2,11,-1
 487 85 l 1,12,-1
 487 34 l 1,13,-1
 441 0 l 1,14,-1
 223 0 l 2,15,16
 70 0 70 0 70 154 c 2,0,-1
167 303 m 1,17,-1
 409 303 l 1,18,-1
 409 379 l 2,19,20
 409 437 409 437 351 437 c 2,21,-1
 226 437 l 2,22,23
 167 437 167 437 167 379 c 2,24,-1
 167 303 l 1,17,-1
EndSplineSet
EndChar

StartChar: f
Encoding: 72 102 72
Width: 390
Flags: W
LayerCount: 2
Fore
SplineSet
78 0 m 1,0,-1
 78 586 l 2,1,2
 78 740 78 740 231 740 c 2,3,-1
 324 740 l 1,4,-1
 370 706 l 1,5,-1
 370 655 l 1,6,-1
 234 655 l 2,7,8
 175 655 175 655 175 596 c 2,9,-1
 175 522 l 1,10,-1
 360 522 l 1,11,-1
 360 437 l 1,12,-1
 175 437 l 1,13,-1
 175 0 l 1,14,-1
 78 0 l 1,0,-1
EndSplineSet
EndChar

StartChar: g
Encoding: 73 103 73
Width: 582
Flags: W
LayerCount: 2
Fore
SplineSet
68 154 m 2,0,-1
 68 369 l 2,1,2
 68 522 68 522 222 522 c 2,3,-1
 506 522 l 1,4,-1
 506 -46 l 2,5,6
 506 -200 506 -200 352 -200 c 2,7,-1
 156 -200 l 1,8,-1
 110 -166 l 1,9,-1
 110 -115 l 1,10,-1
 350 -115 l 2,11,12
 408 -115 408 -115 408 -56 c 2,13,-1
 408 0 l 1,14,-1
 222 0 l 2,15,16
 68 0 68 0 68 154 c 2,0,-1
166 144 m 2,17,18
 166 85 166 85 224 85 c 2,19,-1
 408 85 l 1,20,-1
 408 437 l 1,21,-1
 224 437 l 2,22,23
 166 437 166 437 166 379 c 2,24,-1
 166 144 l 2,17,18
EndSplineSet
EndChar

StartChar: h
Encoding: 74 104 74
Width: 588
Flags: W
LayerCount: 2
Fore
SplineSet
78 0 m 1,0,-1
 78 740 l 1,1,-1
 175 740 l 1,2,-1
 175 522 l 1,3,-1
 361 522 l 2,4,5
 515 522 515 522 515 369 c 2,6,-1
 515 0 l 1,7,-1
 417 0 l 1,8,-1
 417 379 l 2,9,10
 417 437 417 437 359 437 c 2,11,-1
 175 437 l 1,12,-1
 175 0 l 1,13,-1
 78 0 l 1,0,-1
EndSplineSet
EndChar

StartChar: i
Encoding: 75 105 75
Width: 253
Flags: W
LayerCount: 2
Fore
SplineSet
76 614 m 1,0,-1
 76 719 l 1,1,-1
 177 719 l 1,2,-1
 177 614 l 1,3,-1
 76 614 l 1,0,-1
78 0 m 1,4,-1
 78 522 l 1,5,-1
 175 522 l 1,6,-1
 175 0 l 1,7,-1
 78 0 l 1,4,-1
EndSplineSet
EndChar

StartChar: j
Encoding: 76 106 76
Width: 253
Flags: W
LayerCount: 2
Fore
SplineSet
-9 -124 m 1,0,1
 78 -120 78 -120 78 -36 c 2,2,-1
 78 522 l 1,3,-1
 175 522 l 1,4,-1
 175 -25 l 2,5,6
 175 -209 175 -209 -9 -209 c 1,7,-1
 -9 -124 l 1,0,1
76 614 m 1,8,-1
 76 719 l 1,9,-1
 177 719 l 1,10,-1
 177 614 l 1,11,-1
 76 614 l 1,8,-1
EndSplineSet
EndChar

StartChar: k
Encoding: 77 107 77
Width: 544
Flags: W
LayerCount: 2
Fore
SplineSet
78 0 m 1,0,-1
 78 740 l 1,1,-1
 175 740 l 1,2,-1
 175 277 l 1,3,-1
 399 522 l 1,4,-1
 494 522 l 1,5,-1
 502 505 l 1,6,-1
 317 304 l 1,7,-1
 516 17 l 1,8,-1
 508 0 l 1,9,-1
 413 0 l 1,10,-1
 253 234 l 1,11,-1
 175 149 l 1,12,-1
 175 0 l 1,13,-1
 78 0 l 1,0,-1
EndSplineSet
EndChar

StartChar: l
Encoding: 78 108 78
Width: 275
Flags: W
LayerCount: 2
Fore
SplineSet
74 157 m 2,0,-1
 74 740 l 1,1,-1
 171 740 l 1,2,-1
 171 147 l 2,3,4
 171 81 171 81 239 76 c 1,5,-1
 239 -9 l 1,6,7
 74 -9 74 -9 74 157 c 2,0,-1
EndSplineSet
EndChar

StartChar: m
Encoding: 79 109 79
Width: 898
Flags: W
LayerCount: 2
Fore
SplineSet
78 0 m 1,0,-1
 78 522 l 1,1,-1
 671 522 l 2,2,3
 825 522 825 522 825 369 c 2,4,-1
 825 0 l 1,5,-1
 727 0 l 1,6,-1
 727 379 l 2,7,8
 727 437 727 437 669 437 c 2,9,-1
 500 437 l 1,10,-1
 500 0 l 1,11,-1
 402 0 l 1,12,-1
 402 437 l 1,13,-1
 175 437 l 1,14,-1
 175 0 l 1,15,-1
 78 0 l 1,0,-1
EndSplineSet
EndChar

StartChar: n
Encoding: 80 110 80
Width: 588
Flags: W
LayerCount: 2
Fore
SplineSet
78 0 m 1,0,-1
 78 522 l 1,1,-1
 361 522 l 2,2,3
 515 522 515 522 515 369 c 2,4,-1
 515 0 l 1,5,-1
 417 0 l 1,6,-1
 417 379 l 2,7,8
 417 437 417 437 359 437 c 2,9,-1
 175 437 l 1,10,-1
 175 0 l 1,11,-1
 78 0 l 1,0,-1
EndSplineSet
EndChar

StartChar: o
Encoding: 81 111 81
Width: 586
Flags: W
LayerCount: 2
Fore
SplineSet
70 154 m 2,0,-1
 70 369 l 2,1,2
 70 522 70 522 223 522 c 2,3,-1
 363 522 l 2,4,5
 517 522 517 522 517 369 c 2,6,-1
 517 154 l 2,7,8
 517 0 517 0 363 0 c 2,9,-1
 223 0 l 2,10,11
 70 0 70 0 70 154 c 2,0,-1
167 144 m 2,12,13
 167 85 167 85 226 85 c 2,14,-1
 361 85 l 2,15,16
 419 85 419 85 419 144 c 2,17,-1
 419 379 l 2,18,19
 419 437 419 437 361 437 c 2,20,-1
 226 437 l 2,21,22
 167 437 167 437 167 379 c 2,23,-1
 167 144 l 2,12,13
EndSplineSet
EndChar

StartChar: p
Encoding: 82 112 82
Width: 584
Flags: W
LayerCount: 2
Fore
SplineSet
78 -200 m 1,0,-1
 78 522 l 1,1,-1
 361 522 l 2,2,3
 515 522 515 522 515 369 c 2,4,-1
 515 154 l 2,5,6
 515 0 515 0 361 0 c 2,7,-1
 175 0 l 1,8,-1
 175 -200 l 1,9,-1
 78 -200 l 1,0,-1
175 85 m 1,10,-1
 359 85 l 2,11,12
 417 85 417 85 417 144 c 2,13,-1
 417 379 l 2,14,15
 417 437 417 437 359 437 c 2,16,-1
 175 437 l 1,17,-1
 175 85 l 1,10,-1
EndSplineSet
EndChar

StartChar: q
Encoding: 83 113 83
Width: 584
Flags: W
LayerCount: 2
Fore
SplineSet
70 154 m 2,0,-1
 70 369 l 2,1,2
 70 522 70 522 223 522 c 2,3,-1
 507 522 l 1,4,-1
 507 -200 l 1,5,-1
 409 -200 l 1,6,-1
 409 0 l 1,7,-1
 223 0 l 2,8,9
 70 0 70 0 70 154 c 2,0,-1
167 144 m 2,10,11
 167 85 167 85 226 85 c 2,12,-1
 409 85 l 1,13,-1
 409 437 l 1,14,-1
 226 437 l 2,15,16
 167 437 167 437 167 379 c 2,17,-1
 167 144 l 2,10,11
EndSplineSet
EndChar

StartChar: r
Encoding: 84 114 84
Width: 382
Flags: W
LayerCount: 2
Fore
SplineSet
74 0 m 1,0,-1
 74 460 l 1,1,2
 109 522 109 522 207 522 c 2,3,-1
 310 522 l 1,4,-1
 356 488 l 1,5,-1
 356 437 l 1,6,-1
 217 437 l 2,7,8
 185 437 185 437 171 421 c 1,9,-1
 171 0 l 1,10,-1
 74 0 l 1,0,-1
EndSplineSet
EndChar

StartChar: s
Encoding: 85 115 85
Width: 502
Flags: W
LayerCount: 2
Fore
SplineSet
58 34 m 1,0,-1
 58 85 l 1,1,-1
 288 85 l 2,2,3
 347 85 347 85 347 145 c 256,4,5
 347 206 347 206 296 215 c 2,6,-1
 180 234 l 2,7,8
 58 254 58 254 58 370 c 256,9,10
 58 522 58 522 212 522 c 2,11,-1
 374 522 l 1,12,-1
 420 488 l 1,13,-1
 420 437 l 1,14,-1
 214 437 l 2,15,16
 155 437 155 437 155 377 c 256,17,18
 155 323 155 323 206 315 c 2,19,-1
 323 295 l 2,20,21
 444 275 444 275 444 152 c 256,22,23
 444 0 444 0 291 0 c 2,24,-1
 104 0 l 1,25,-1
 58 34 l 1,0,-1
EndSplineSet
EndChar

StartChar: t
Encoding: 86 116 86
Width: 402
Flags: W
LayerCount: 2
Fore
SplineSet
74 154 m 2,0,-1
 74 690 l 1,1,-1
 171 690 l 1,2,-1
 171 522 l 1,3,-1
 356 522 l 1,4,-1
 356 437 l 1,5,-1
 171 437 l 1,6,-1
 171 144 l 2,7,8
 171 85 171 85 230 85 c 2,9,-1
 366 85 l 1,10,-1
 366 34 l 1,11,-1
 320 0 l 1,12,-1
 227 0 l 2,13,14
 74 0 74 0 74 154 c 2,0,-1
EndSplineSet
EndChar

StartChar: u
Encoding: 87 117 87
Width: 588
Flags: W
LayerCount: 2
Fore
SplineSet
74 154 m 2,0,-1
 74 522 l 1,1,-1
 171 522 l 1,2,-1
 171 144 l 2,3,4
 171 85 171 85 230 85 c 2,5,-1
 413 85 l 1,6,-1
 413 522 l 1,7,-1
 511 522 l 1,8,-1
 511 0 l 1,9,-1
 227 0 l 2,10,11
 74 0 74 0 74 154 c 2,0,-1
EndSplineSet
EndChar

StartChar: v
Encoding: 88 118 88
Width: 531
Flags: W
LayerCount: 2
Fore
SplineSet
19 506 m 1,0,-1
 30 522 l 1,1,-1
 114 522 l 1,2,-1
 257 85 l 1,3,-1
 274 85 l 1,4,-1
 417 522 l 1,5,-1
 501 522 l 1,6,-1
 511 506 l 1,7,-1
 341 0 l 1,8,-1
 190 0 l 1,9,-1
 19 506 l 1,0,-1
EndSplineSet
EndChar

StartChar: w
Encoding: 89 119 89
Width: 803
Flags: W
LayerCount: 2
Fore
SplineSet
23 506 m 1,0,-1
 35 522 l 1,1,-1
 117 522 l 1,2,-1
 214 85 l 1,3,-1
 227 85 l 1,4,-1
 343 522 l 1,5,-1
 460 522 l 1,6,-1
 576 85 l 1,7,-1
 589 85 l 1,8,-1
 686 522 l 1,9,-1
 768 522 l 1,10,-1
 779 506 l 1,11,-1
 662 0 l 1,12,-1
 511 0 l 1,13,-1
 401 418 l 1,14,-1
 292 0 l 1,15,-1
 141 0 l 1,16,-1
 23 506 l 1,0,-1
EndSplineSet
EndChar

StartChar: x
Encoding: 90 120 90
Width: 531
Flags: W
LayerCount: 2
Fore
SplineSet
29 17 m 1,0,-1
 210 266 l 1,1,-1
 36 505 l 1,2,-1
 44 522 l 1,3,-1
 134 522 l 1,4,-1
 265 337 l 1,5,-1
 397 522 l 1,6,-1
 487 522 l 1,7,-1
 495 505 l 1,8,-1
 321 266 l 1,9,-1
 501 17 l 1,10,-1
 493 0 l 1,11,-1
 403 0 l 1,12,-1
 265 194 l 1,13,-1
 128 0 l 1,14,-1
 38 0 l 1,15,-1
 29 17 l 1,0,-1
EndSplineSet
EndChar

StartChar: y
Encoding: 91 121 91
Width: 531
Flags: W
LayerCount: 2
Fore
SplineSet
19 506 m 1,0,-1
 30 522 l 1,1,-1
 114 522 l 1,2,-1
 257 85 l 1,3,-1
 274 85 l 1,4,-1
 417 522 l 1,5,-1
 501 522 l 1,6,-1
 511 506 l 1,7,-1
 274 -200 l 1,8,-1
 190 -200 l 1,9,-1
 180 -184 l 1,10,-1
 245 0 l 1,11,-1
 190 0 l 1,12,-1
 19 506 l 1,0,-1
EndSplineSet
EndChar

StartChar: z
Encoding: 92 122 92
Width: 512
Flags: W
LayerCount: 2
Fore
SplineSet
48 0 m 1,0,-1
 48 75 l 1,1,-1
 331 437 l 1,2,-1
 58 437 l 1,3,-1
 58 522 l 1,4,-1
 455 522 l 1,5,-1
 455 448 l 1,6,-1
 172 85 l 1,7,-1
 465 85 l 1,8,-1
 465 0 l 1,9,-1
 48 0 l 1,0,-1
EndSplineSet
EndChar

StartChar: braceleft
Encoding: 93 123 93
Width: 392
Flags: W
LayerCount: 2
Fore
SplineSet
50 264 m 1,0,-1
 50 313 l 1,1,-1
 137 400 l 1,2,-1
 137 606 l 2,3,4
 137 760 137 760 291 760 c 2,5,-1
 362 760 l 1,6,-1
 362 675 l 1,7,-1
 293 675 l 2,8,9
 234 675 234 675 234 616 c 2,10,-1
 234 376 l 1,11,-1
 147 288 l 1,12,-1
 234 201 l 1,13,-1
 234 -36 l 2,14,15
 234 -95 234 -95 293 -95 c 2,16,-1
 362 -95 l 1,17,-1
 362 -180 l 1,18,-1
 291 -180 l 2,19,20
 137 -180 137 -180 137 -26 c 2,21,-1
 137 177 l 1,22,-1
 50 264 l 1,0,-1
EndSplineSet
EndChar

StartChar: bar
Encoding: 94 124 94
Width: 285
Flags: W
LayerCount: 2
Fore
SplineSet
98 -200 m 1,0,-1
 98 740 l 1,1,-1
 187 740 l 1,2,-1
 187 -200 l 1,3,-1
 98 -200 l 1,0,-1
EndSplineSet
EndChar

StartChar: braceright
Encoding: 95 125 95
Width: 392
Flags: W
LayerCount: 2
Fore
SplineSet
30 -95 m 1,0,-1
 99 -95 l 2,1,2
 158 -95 158 -95 158 -36 c 2,3,-1
 158 201 l 1,4,-1
 245 288 l 1,5,-1
 158 376 l 1,6,-1
 158 616 l 2,7,8
 158 675 158 675 99 675 c 2,9,-1
 30 675 l 1,10,-1
 30 760 l 1,11,-1
 101 760 l 2,12,13
 255 760 255 760 255 606 c 2,14,-1
 255 400 l 1,15,-1
 342 313 l 1,16,-1
 342 264 l 1,17,-1
 255 177 l 1,18,-1
 255 -26 l 2,19,20
 255 -180 255 -180 101 -180 c 2,21,-1
 30 -180 l 1,22,-1
 30 -95 l 1,0,-1
EndSplineSet
EndChar

StartChar: asciitilde
Encoding: 96 126 96
Width: 578
Flags: W
LayerCount: 2
Fore
SplineSet
44 310 m 1,0,-1
 134 400 l 2,1,2
 166 432 166 432 209 432 c 128,-1,3
 252 432 252 432 284 400 c 2,4,-1
 344 340 l 2,5,6
 357 327 357 327 369 327 c 128,-1,7
 381 327 381 327 394 340 c 2,8,-1
 474 420 l 1,9,-1
 534 360 l 1,10,-1
 444 270 l 2,11,12
 412 238 412 238 369 238 c 128,-1,13
 326 238 326 238 294 270 c 2,14,-1
 234 330 l 2,15,16
 221 343 221 343 209 343 c 128,-1,17
 197 343 197 343 184 330 c 2,18,-1
 104 250 l 1,19,-1
 44 310 l 1,0,-1
EndSplineSet
EndChar

StartChar: exclamdown
Encoding: 98 161 98
Width: 265
Flags: W
LayerCount: 2
Fore
SplineSet
75 402 m 1,0,-1
 75 522 l 1,1,-1
 190 522 l 1,2,-1
 190 402 l 1,3,-1
 75 402 l 1,0,-1
82 -168 m 1,4,-1
 82 309 l 1,5,-1
 184 309 l 1,6,-1
 184 -168 l 1,7,-1
 82 -168 l 1,4,-1
EndSplineSet
EndChar

StartChar: cent
Encoding: 99 162 99
Width: 578
Flags: W
LayerCount: 2
Fore
SplineSet
90 154 m 2,0,-1
 90 369 l 2,1,2
 90 522 90 522 244 522 c 2,3,-1
 276 522 l 1,4,-1
 276 632 l 1,5,-1
 356 632 l 1,6,-1
 356 522 l 1,7,-1
 437 522 l 1,8,-1
 483 488 l 1,9,-1
 483 437 l 1,10,-1
 246 437 l 2,11,12
 188 437 188 437 188 379 c 2,13,-1
 188 144 l 2,14,15
 188 85 188 85 246 85 c 2,16,-1
 483 85 l 1,17,-1
 483 34 l 1,18,-1
 437 0 l 1,19,-1
 356 0 l 1,20,-1
 356 -110 l 1,21,-1
 276 -110 l 1,22,-1
 276 0 l 1,23,-1
 244 0 l 2,24,25
 90 0 90 0 90 154 c 2,0,-1
EndSplineSet
EndChar

StartChar: sterling
Encoding: 100 163 100
Width: 578
Flags: W
LayerCount: 2
Fore
SplineSet
61 0 m 1,0,-1
 61 92 l 1,1,-1
 150 92 l 1,2,-1
 150 305 l 1,3,-1
 61 305 l 1,4,-1
 61 385 l 1,5,-1
 150 385 l 1,6,-1
 150 532 l 2,7,8
 150 690 150 690 308 690 c 2,9,-1
 455 690 l 1,10,-1
 507 650 l 1,11,-1
 507 598 l 1,12,-1
 309 598 l 2,13,14
 252 598 252 598 252 541 c 2,15,-1
 252 385 l 1,16,-1
 421 385 l 1,17,-1
 421 305 l 1,18,-1
 252 305 l 1,19,-1
 252 92 l 1,20,-1
 527 92 l 1,21,-1
 527 0 l 1,22,-1
 61 0 l 1,0,-1
EndSplineSet
EndChar

StartChar: currency
Encoding: 101 164 101
Width: 578
Flags: W
LayerCount: 2
Fore
SplineSet
54 162 m 1,0,-1
 132 240 l 1,1,-1
 132 460 l 1,2,-1
 54 538 l 1,3,-1
 106 590 l 1,4,-1
 184 512 l 1,5,-1
 394 512 l 1,6,-1
 472 590 l 1,7,-1
 524 538 l 1,8,-1
 446 460 l 1,9,-1
 446 240 l 1,10,-1
 524 162 l 1,11,-1
 472 110 l 1,12,-1
 394 188 l 1,13,-1
 184 188 l 1,14,-1
 106 110 l 1,15,-1
 54 162 l 1,0,-1
209 286 m 2,16,17
 209 260 209 260 235 260 c 2,18,-1
 343 260 l 2,19,20
 369 260 369 260 369 286 c 2,21,-1
 369 414 l 2,22,23
 369 440 369 440 343 440 c 2,24,-1
 235 440 l 2,25,26
 209 440 209 440 209 414 c 2,27,-1
 209 286 l 2,16,17
EndSplineSet
EndChar

StartChar: yen
Encoding: 102 165 102
Width: 578
Flags: W
LayerCount: 2
Fore
SplineSet
24 669 m 1,0,-1
 36 690 l 1,1,-1
 123 690 l 1,2,-1
 289 378 l 1,3,-1
 455 690 l 1,4,-1
 542 690 l 1,5,-1
 554 669 l 1,6,-1
 369 327 l 1,7,-1
 484 327 l 1,8,-1
 484 256 l 1,9,-1
 340 256 l 1,10,-1
 340 184 l 1,11,-1
 484 184 l 1,12,-1
 484 113 l 1,13,-1
 340 113 l 1,14,-1
 340 0 l 1,15,-1
 238 0 l 1,16,-1
 238 113 l 1,17,-1
 94 113 l 1,18,-1
 94 184 l 1,19,-1
 238 184 l 1,20,-1
 238 256 l 1,21,-1
 94 256 l 1,22,-1
 94 327 l 1,23,-1
 209 327 l 1,24,-1
 24 669 l 1,0,-1
EndSplineSet
EndChar

StartChar: brokenbar
Encoding: 103 166 103
Width: 285
Flags: W
LayerCount: 2
Fore
SplineSet
98 172 m 1,0,-1
 187 172 l 1,1,-1
 187 -200 l 1,2,-1
 98 -200 l 1,3,-1
 98 172 l 1,0,-1
98 368 m 1,4,-1
 98 740 l 1,5,-1
 187 740 l 1,6,-1
 187 368 l 1,7,-1
 98 368 l 1,4,-1
EndSplineSet
EndChar

StartChar: section
Encoding: 104 167 104
Width: 541
Flags: W
LayerCount: 2
Fore
SplineSet
78 -15 m 1,0,-1
 308 -15 l 2,1,2
 367 -15 367 -15 367 45 c 256,3,4
 367 106 367 106 316 115 c 2,5,-1
 199 134 l 2,6,7
 78 154 78 154 78 270 c 2,8,-1
 78 376 l 1,9,-1
 126 424 l 1,10,11
 78 460 78 460 78 538 c 256,12,13
 78 690 78 690 231 690 c 2,14,-1
 394 690 l 1,15,-1
 440 656 l 1,16,-1
 440 605 l 1,17,-1
 234 605 l 2,18,19
 175 605 175 605 175 545 c 256,20,21
 175 484 175 484 226 475 c 2,22,-1
 342 456 l 2,23,24
 464 436 464 436 464 320 c 2,25,-1
 464 214 l 1,26,-1
 416 166 l 1,27,28
 464 130 464 130 464 52 c 256,29,30
 464 -100 464 -100 310 -100 c 2,31,-1
 124 -100 l 1,32,-1
 78 -66 l 1,33,-1
 78 -15 l 1,0,-1
175 277 m 2,34,35
 175 223 175 223 226 215 c 2,36,-1
 367 191 l 1,37,-1
 367 313 l 2,38,39
 367 367 367 367 316 375 c 2,40,-1
 175 399 l 1,41,-1
 175 277 l 2,34,35
EndSplineSet
EndChar

StartChar: copyright
Encoding: 106 169 106
Width: 841
Flags: W
LayerCount: 2
Fore
SplineSet
78 103 m 2,0,-1
 78 587 l 2,1,2
 78 690 78 690 181 690 c 2,3,-1
 660 690 l 2,4,5
 764 690 764 690 764 587 c 2,6,-1
 764 103 l 2,7,8
 764 0 764 0 660 0 c 2,9,-1
 181 0 l 2,10,11
 78 0 78 0 78 103 c 2,0,-1
150 92 m 2,12,13
 150 65 150 65 177 65 c 2,14,-1
 664 65 l 2,15,16
 691 65 691 65 691 92 c 2,17,-1
 691 598 l 2,18,19
 691 625 691 625 664 625 c 2,20,-1
 177 625 l 2,21,22
 150 625 150 625 150 598 c 2,23,-1
 150 92 l 2,12,13
259 259 m 2,24,-1
 259 431 l 2,25,26
 259 538 259 538 366 538 c 2,27,-1
 516 538 l 1,28,-1
 552 509 l 1,29,-1
 552 468 l 1,30,-1
 362 468 l 2,31,32
 336 468 336 468 336 442 c 2,33,-1
 336 248 l 2,34,35
 336 222 336 222 362 222 c 2,36,-1
 552 222 l 1,37,-1
 552 181 l 1,38,-1
 516 152 l 1,39,-1
 366 152 l 2,40,41
 259 152 259 152 259 259 c 2,24,-1
EndSplineSet
EndChar

StartChar: ordfeminine
Encoding: 107 170 107
Width: 401
Flags: W
LayerCount: 2
Fore
SplineSet
38 405 m 2,0,-1
 38 426 l 2,1,2
 38 532 38 532 145 532 c 2,3,-1
 276 532 l 1,4,-1
 276 594 l 2,5,6
 276 620 276 620 250 620 c 2,7,-1
 71 620 l 1,8,-1
 71 661 l 1,9,-1
 107 690 l 1,10,-1
 246 690 l 2,11,12
 353 690 353 690 353 583 c 2,13,-1
 353 299 l 1,14,-1
 145 299 l 2,15,16
 38 299 38 299 38 405 c 2,0,-1
115 395 m 2,17,18
 115 369 115 369 141 369 c 2,19,-1
 276 369 l 1,20,-1
 276 465 l 1,21,-1
 141 465 l 2,22,23
 115 465 115 465 115 439 c 2,24,-1
 115 395 l 2,17,18
EndSplineSet
EndChar

StartChar: logicalnot
Encoding: 109 172 109
Width: 578
Flags: W
LayerCount: 2
Fore
SplineSet
63 343 m 1,0,-1
 63 427 l 1,1,-1
 515 427 l 1,2,-1
 515 149 l 1,3,-1
 426 149 l 1,4,-1
 426 343 l 1,5,-1
 63 343 l 1,0,-1
EndSplineSet
EndChar

StartChar: registered
Encoding: 111 174 111
Width: 841
Flags: W
LayerCount: 2
Fore
SplineSet
78 103 m 2,0,-1
 78 587 l 2,1,2
 78 690 78 690 181 690 c 2,3,-1
 660 690 l 2,4,5
 764 690 764 690 764 587 c 2,6,-1
 764 103 l 2,7,8
 764 0 764 0 660 0 c 2,9,-1
 181 0 l 2,10,11
 78 0 78 0 78 103 c 2,0,-1
150 92 m 2,12,13
 150 65 150 65 177 65 c 2,14,-1
 664 65 l 2,15,16
 691 65 691 65 691 92 c 2,17,-1
 691 598 l 2,18,19
 691 625 691 625 664 625 c 2,20,-1
 177 625 l 2,21,22
 150 625 150 625 150 598 c 2,23,-1
 150 92 l 2,12,13
277 152 m 1,24,-1
 277 538 l 1,25,-1
 464 538 l 2,26,27
 571 538 571 538 571 431 c 2,28,-1
 571 394 l 2,29,30
 571 317 571 317 515 296 c 1,31,-1
 579 170 l 1,32,-1
 570 152 l 1,33,-1
 504 152 l 1,34,-1
 435 288 l 1,35,-1
 354 288 l 1,36,-1
 354 152 l 1,37,-1
 277 152 l 1,24,-1
354 358 m 1,38,-1
 468 358 l 2,39,40
 494 358 494 358 494 384 c 2,41,-1
 494 442 l 2,42,43
 494 468 494 468 468 468 c 2,44,-1
 354 468 l 1,45,-1
 354 358 l 1,38,-1
EndSplineSet
EndChar

StartChar: degree
Encoding: 113 176 113
Width: 411
Flags: W
LayerCount: 2
Fore
SplineSet
58 473 m 2,0,-1
 58 587 l 2,1,2
 58 690 58 690 161 690 c 2,3,-1
 250 690 l 2,4,5
 353 690 353 690 353 587 c 2,6,-1
 353 473 l 2,7,8
 353 370 353 370 250 370 c 2,9,-1
 161 370 l 2,10,11
 58 370 58 370 58 473 c 2,0,-1
130 462 m 2,12,13
 130 435 130 435 157 435 c 2,14,-1
 253 435 l 2,15,16
 280 435 280 435 280 462 c 2,17,-1
 280 598 l 2,18,19
 280 625 280 625 253 625 c 2,20,-1
 157 625 l 2,21,22
 130 625 130 625 130 598 c 2,23,-1
 130 462 l 2,12,13
EndSplineSet
EndChar

StartChar: plusminus
Encoding: 114 177 114
Width: 578
Flags: W
LayerCount: 2
Fore
SplineSet
63 0 m 1,0,-1
 63 84 l 1,1,-1
 515 84 l 1,2,-1
 515 0 l 1,3,-1
 63 0 l 1,0,-1
63 319 m 1,4,-1
 63 403 l 1,5,-1
 244 403 l 1,6,-1
 244 585 l 1,7,-1
 334 585 l 1,8,-1
 334 403 l 1,9,-1
 515 403 l 1,10,-1
 515 319 l 1,11,-1
 334 319 l 1,12,-1
 334 137 l 1,13,-1
 244 137 l 1,14,-1
 244 319 l 1,15,-1
 63 319 l 1,4,-1
EndSplineSet
EndChar

StartChar: uni00B2
Encoding: 115 178 115
Width: 362
Flags: W
LayerCount: 2
Fore
SplineSet
38 278 m 1,0,-1
 38 404 l 2,1,2
 38 488 38 488 118 504 c 10,3,-1
 220 525 l 2,4,5
 246 530 246 530 246 556 c 2,6,-1
 246 594 l 2,7,8
 246 620 246 620 220 620 c 2,9,-1
 50 620 l 1,10,-1
 50 661 l 1,11,-1
 87 690 l 1,12,-1
 217 690 l 2,13,14
 324 690 324 690 324 583 c 2,15,-1
 324 557 l 2,16,17
 324 472 324 472 244 456 c 10,18,-1
 142 436 l 2,19,20
 115 431 115 431 115 405 c 2,21,-1
 115 348 l 1,22,-1
 324 348 l 1,23,-1
 324 278 l 1,24,-1
 38 278 l 1,0,-1
EndSplineSet
EndChar

StartChar: uni00B3
Encoding: 116 179 116
Width: 362
Flags: W
LayerCount: 2
Fore
SplineSet
44 307 m 1,0,-1
 44 348 l 1,1,-1
 220 348 l 2,2,3
 246 348 246 348 246 374 c 2,4,-1
 246 428 l 2,5,6
 246 454 246 454 220 454 c 2,7,-1
 88 454 l 1,8,-1
 88 524 l 1,9,-1
 220 524 l 2,10,11
 246 524 246 524 246 550 c 2,12,-1
 246 594 l 2,13,14
 246 620 246 620 220 620 c 2,15,-1
 50 620 l 1,16,-1
 50 661 l 1,17,-1
 87 690 l 1,18,-1
 217 690 l 2,19,20
 324 690 324 690 324 583 c 2,21,-1
 324 558 l 2,22,23
 324 531 324 531 307 514 c 2,24,-1
 284 491 l 1,25,-1
 307 468 l 2,26,27
 324 451 324 451 324 424 c 2,28,-1
 324 385 l 2,29,30
 324 278 324 278 217 278 c 2,31,-1
 81 278 l 1,32,-1
 44 307 l 1,0,-1
EndSplineSet
EndChar

StartChar: mu
Encoding: 118 181 118
Width: 588
Flags: W
LayerCount: 2
Fore
SplineSet
78 -200 m 1,0,-1
 78 522 l 1,1,-1
 175 522 l 1,2,-1
 175 85 l 1,3,-1
 359 85 l 2,4,5
 417 85 417 85 417 144 c 2,6,-1
 417 522 l 1,7,-1
 515 522 l 1,8,-1
 515 154 l 2,9,10
 515 0 515 0 361 0 c 2,11,-1
 175 0 l 1,12,-1
 175 -200 l 1,13,-1
 78 -200 l 1,0,-1
EndSplineSet
EndChar

StartChar: paragraph
Encoding: 119 182 119
Width: 602
Flags: W
LayerCount: 2
Fore
SplineSet
68 381 m 2,0,-1
 68 540 l 2,1,2
 68 690 68 690 218 690 c 2,3,-1
 337 690 l 1,4,-1
 337 231 l 1,5,-1
 218 231 l 2,6,7
 68 231 68 231 68 381 c 2,0,-1
407 -170 m 1,8,-1
 407 690 l 1,9,-1
 504 690 l 1,10,-1
 504 -170 l 1,11,-1
 407 -170 l 1,8,-1
EndSplineSet
EndChar

StartChar: uni00B9
Encoding: 122 185 122
Width: 362
Flags: W
LayerCount: 2
Fore
SplineSet
56 278 m 1,0,-1
 56 348 l 1,1,-1
 153 348 l 1,2,-1
 153 620 l 1,3,-1
 75 620 l 1,4,-1
 75 661 l 1,5,-1
 112 690 l 1,6,-1
 230 690 l 1,7,-1
 230 348 l 1,8,-1
 318 348 l 1,9,-1
 318 278 l 1,10,-1
 56 278 l 1,0,-1
EndSplineSet
EndChar

StartChar: ordmasculine
Encoding: 123 186 123
Width: 431
Flags: W
LayerCount: 2
Fore
SplineSet
48 405 m 2,0,-1
 48 583 l 2,1,2
 48 690 48 690 155 690 c 2,3,-1
 276 690 l 2,4,5
 383 690 383 690 383 583 c 2,6,-1
 383 405 l 2,7,8
 383 299 383 299 276 299 c 2,9,-1
 155 299 l 2,10,11
 48 299 48 299 48 405 c 2,0,-1
125 395 m 2,12,13
 125 369 125 369 151 369 c 2,14,-1
 280 369 l 2,15,16
 306 369 306 369 306 395 c 2,17,-1
 306 594 l 2,18,19
 306 620 306 620 280 620 c 2,20,-1
 151 620 l 2,21,22
 125 620 125 620 125 594 c 2,23,-1
 125 395 l 2,12,13
EndSplineSet
EndChar

StartChar: questiondown
Encoding: 128 191 128
Width: 487
Flags: W
LayerCount: 2
Fore
SplineSet
50 -10 m 2,0,-1
 50 78 l 2,1,2
 50 236 50 236 208 236 c 2,3,-1
 240 236 l 1,4,-1
 240 309 l 1,5,-1
 343 309 l 1,6,-1
 343 143 l 1,7,-1
 209 143 l 2,8,9
 152 143 152 143 152 87 c 2,10,-1
 152 -19 l 2,11,12
 152 -75 152 -75 209 -75 c 2,13,-1
 467 -75 l 1,14,-1
 467 -128 l 1,15,-1
 416 -168 l 1,16,-1
 208 -168 l 2,17,18
 50 -168 50 -168 50 -10 c 2,0,-1
234 402 m 1,19,-1
 234 522 l 1,20,-1
 349 522 l 1,21,-1
 349 402 l 1,22,-1
 234 402 l 1,19,-1
EndSplineSet
EndChar

StartChar: AE
Encoding: 135 198 135
Width: 901
Flags: W
LayerCount: 2
Fore
SplineSet
19 21 m 1,0,-1
 239 690 l 1,1,-1
 851 690 l 1,2,-1
 851 598 l 1,3,-1
 521 598 l 1,4,-1
 521 406 l 1,5,-1
 821 406 l 1,6,-1
 821 314 l 1,7,-1
 521 314 l 1,8,-1
 521 92 l 1,9,-1
 851 92 l 1,10,-1
 851 0 l 1,11,-1
 419 0 l 1,12,-1
 419 164 l 1,13,-1
 170 164 l 1,14,-1
 118 0 l 1,15,-1
 33 0 l 1,16,-1
 19 21 l 1,0,-1
199 256 m 1,17,-1
 419 256 l 1,18,-1
 419 598 l 1,19,-1
 310 598 l 1,20,-1
 199 256 l 1,17,-1
EndSplineSet
EndChar

StartChar: Eth
Encoding: 145 208 145
Width: 694
Flags: W
LayerCount: 2
Fore
SplineSet
20 305 m 1,0,-1
 20 385 l 1,1,-1
 99 385 l 1,2,-1
 99 690 l 1,3,-1
 394 690 l 2,4,5
 627 690 627 690 627 457 c 2,6,-1
 627 233 l 2,7,8
 627 0 627 0 394 0 c 2,9,-1
 99 0 l 1,10,-1
 99 305 l 1,11,-1
 20 305 l 1,0,-1
201 92 m 1,12,-1
 394 92 l 2,13,14
 525 92 525 92 525 223 c 2,15,-1
 525 467 l 2,16,17
 525 598 525 598 394 598 c 2,18,-1
 201 598 l 1,19,-1
 201 385 l 1,20,-1
 363 385 l 1,21,-1
 363 305 l 1,22,-1
 201 305 l 1,23,-1
 201 92 l 1,12,-1
EndSplineSet
EndChar

StartChar: multiply
Encoding: 152 215 152
Width: 578
Flags: W
LayerCount: 2
Fore
SplineSet
79 185 m 1,0,-1
 229 335 l 1,1,-1
 79 485 l 1,2,-1
 139 545 l 1,3,-1
 289 395 l 1,4,-1
 439 545 l 1,5,-1
 499 485 l 1,6,-1
 349 335 l 1,7,-1
 499 185 l 1,8,-1
 439 125 l 1,9,-1
 289 275 l 1,10,-1
 139 125 l 1,11,-1
 79 185 l 1,0,-1
EndSplineSet
EndChar

StartChar: Oslash
Encoding: 153 216 153
Width: 702
Flags: W
LayerCount: 2
Fore
SplineSet
78 158 m 2,0,-1
 78 532 l 2,1,2
 78 690 78 690 235 690 c 2,3,-1
 467 690 l 2,4,5
 625 690 625 690 625 532 c 2,6,-1
 625 158 l 2,7,8
 625 0 625 0 467 0 c 2,9,-1
 235 0 l 2,10,11
 78 0 78 0 78 158 c 2,0,-1
180 241 m 1,12,-1
 522 550 l 1,13,14
 518 598 518 598 466 598 c 2,15,-1
 236 598 l 2,16,17
 180 598 180 598 180 541 c 2,18,-1
 180 241 l 1,12,-1
181 140 m 1,19,20
 184 92 184 92 236 92 c 2,21,-1
 466 92 l 2,22,23
 523 92 523 92 523 149 c 2,24,-1
 523 449 l 1,25,-1
 181 140 l 1,19,20
EndSplineSet
EndChar

StartChar: Thorn
Encoding: 159 222 159
Width: 632
Flags: W
LayerCount: 2
Fore
SplineSet
88 0 m 1,0,-1
 88 690 l 1,1,-1
 190 690 l 1,2,-1
 190 576 l 1,3,-1
 417 576 l 2,4,5
 575 576 575 576 575 418 c 2,6,-1
 575 286 l 2,7,8
 575 128 575 128 417 128 c 2,9,-1
 190 128 l 1,10,-1
 190 0 l 1,11,-1
 88 0 l 1,0,-1
190 220 m 1,12,-1
 416 220 l 2,13,14
 473 220 473 220 473 277 c 2,15,-1
 473 427 l 2,16,17
 473 484 473 484 416 484 c 2,18,-1
 190 484 l 1,19,-1
 190 220 l 1,12,-1
EndSplineSet
EndChar

StartChar: germandbls
Encoding: 160 223 160
Width: 607
Flags: W
LayerCount: 2
Fore
SplineSet
78 0 m 1,0,-1
 78 586 l 2,1,2
 78 740 78 740 231 740 c 2,3,-1
 364 740 l 2,4,5
 518 740 518 740 518 586 c 2,6,-1
 518 491 l 2,7,8
 518 457 518 457 498 433 c 2,9,-1
 463 391 l 1,10,-1
 505 356 l 2,11,12
 538 328 538 328 538 276 c 2,13,-1
 538 154 l 2,14,15
 538 0 538 0 384 0 c 2,16,-1
 303 0 l 1,17,-1
 257 34 l 1,18,-1
 257 85 l 1,19,-1
 382 85 l 2,20,21
 440 85 440 85 440 144 c 2,22,-1
 440 284 l 2,23,24
 440 342 440 342 382 342 c 2,25,-1
 267 342 l 1,26,-1
 267 428 l 1,27,-1
 362 428 l 2,28,29
 420 428 420 428 420 486 c 2,30,-1
 420 596 l 2,31,32
 420 655 420 655 362 655 c 2,33,-1
 234 655 l 2,34,35
 175 655 175 655 175 596 c 2,36,-1
 175 0 l 1,37,-1
 78 0 l 1,0,-1
EndSplineSet
EndChar

StartChar: ae
Encoding: 167 230 167
Width: 870
Flags: W
LayerCount: 2
Fore
SplineSet
204 0 m 2,0,1
 50 0 50 0 50 154 c 128,-1,2
 50 308 50 308 204 308 c 2,3,-1
 371 308 l 1,4,-1
 371 379 l 2,5,6
 371 437 371 437 312 437 c 2,7,-1
 101 437 l 1,8,-1
 101 488 l 1,9,-1
 147 522 l 1,10,-1
 309 522 l 2,11,12
 379 522 379 522 419 482 c 1,13,14
 459 522 459 522 530 522 c 2,15,-1
 647 522 l 2,16,17
 801 522 801 522 801 369 c 2,18,-1
 801 221 l 1,19,-1
 468 221 l 1,20,-1
 468 144 l 2,21,22
 468 85 468 85 527 85 c 2,23,-1
 781 85 l 1,24,-1
 781 34 l 1,25,-1
 735 0 l 1,26,-1
 530 0 l 2,27,28
 459 0 459 0 419 40 c 1,29,30
 379 0 379 0 309 0 c 2,31,-1
 204 0 l 2,0,1
147 144 m 2,32,33
 147 85 147 85 206 85 c 2,34,-1
 312 85 l 2,35,36
 371 85 371 85 371 144 c 2,37,-1
 371 226 l 1,38,-1
 206 226 l 2,39,40
 147 226 147 226 147 168 c 2,41,-1
 147 144 l 2,32,33
468 303 m 1,42,-1
 703 303 l 1,43,-1
 703 379 l 2,44,45
 703 437 703 437 645 437 c 2,46,-1
 527 437 l 2,47,48
 468 437 468 437 468 379 c 2,49,-1
 468 303 l 1,42,-1
EndSplineSet
EndChar

StartChar: eth
Encoding: 177 240 177
Width: 586
Flags: W
LayerCount: 2
Fore
SplineSet
70 154 m 2,0,-1
 70 296 l 2,1,2
 70 450 70 450 223 450 c 2,3,-1
 394 450 l 1,4,-1
 321 564 l 1,5,-1
 212 512 l 1,6,-1
 181 579 l 1,7,-1
 281 628 l 1,8,-1
 232 704 l 1,9,-1
 310 754 l 1,10,-1
 365 668 l 1,11,-1
 465 715 l 1,12,-1
 497 647 l 1,13,-1
 405 604 l 1,14,-1
 481 482 l 2,15,16
 517 426 517 426 517 370 c 2,17,-1
 517 154 l 2,18,19
 517 0 517 0 363 0 c 2,20,-1
 223 0 l 2,21,22
 70 0 70 0 70 154 c 2,0,-1
167 144 m 2,23,24
 167 85 167 85 226 85 c 2,25,-1
 361 85 l 2,26,27
 419 85 419 85 419 144 c 2,28,-1
 419 365 l 1,29,-1
 226 365 l 2,30,31
 167 365 167 365 167 306 c 2,32,-1
 167 144 l 2,23,24
EndSplineSet
EndChar

StartChar: divide
Encoding: 184 247 184
Width: 578
Flags: W
LayerCount: 2
Fore
SplineSet
63 293 m 1,0,-1
 63 377 l 1,1,-1
 515 377 l 1,2,-1
 515 293 l 1,3,-1
 63 293 l 1,0,-1
240 96 m 1,4,-1
 240 194 l 1,5,-1
 338 194 l 1,6,-1
 338 96 l 1,7,-1
 240 96 l 1,4,-1
240 476 m 1,8,-1
 240 574 l 1,9,-1
 338 574 l 1,10,-1
 338 476 l 1,11,-1
 240 476 l 1,8,-1
EndSplineSet
EndChar

StartChar: oslash
Encoding: 185 248 185
Width: 586
Flags: W
LayerCount: 2
Fore
SplineSet
70 154 m 2,0,-1
 70 369 l 2,1,2
 70 522 70 522 223 522 c 2,3,-1
 363 522 l 2,4,5
 517 522 517 522 517 369 c 2,6,-1
 517 154 l 2,7,8
 517 0 517 0 363 0 c 2,9,-1
 223 0 l 2,10,11
 70 0 70 0 70 154 c 2,0,-1
167 195 m 1,12,-1
 410 414 l 1,13,14
 396 437 396 437 361 437 c 2,15,-1
 226 437 l 2,16,17
 167 437 167 437 167 379 c 2,18,-1
 167 195 l 1,12,-1
176 108 m 1,19,20
 190 85 190 85 226 85 c 2,21,-1
 361 85 l 2,22,23
 419 85 419 85 419 144 c 2,24,-1
 419 327 l 1,25,-1
 176 108 l 1,19,20
EndSplineSet
EndChar

StartChar: thorn
Encoding: 191 254 191
Width: 584
Flags: W
LayerCount: 2
Fore
SplineSet
78 -200 m 1,0,-1
 78 740 l 1,1,-1
 175 740 l 1,2,-1
 175 522 l 1,3,-1
 361 522 l 2,4,5
 515 522 515 522 515 369 c 2,6,-1
 515 154 l 2,7,8
 515 0 515 0 361 0 c 2,9,-1
 175 0 l 1,10,-1
 175 -200 l 1,11,-1
 78 -200 l 1,0,-1
175 85 m 1,12,-1
 359 85 l 2,13,14
 417 85 417 85 417 144 c 2,15,-1
 417 379 l 2,16,17
 417 437 417 437 359 437 c 2,18,-1
 175 437 l 1,19,-1
 175 85 l 1,12,-1
EndSplineSet
EndChar

StartChar: dcroat
Encoding: 206 273 206
Width: 584
Flags: W
LayerCount: 2
Fore
SplineSet
70 154 m 2,0,-1
 70 369 l 2,1,2
 70 522 70 522 223 522 c 2,3,-1
 409 522 l 1,4,-1
 409 596 l 1,5,-1
 240 596 l 1,6,-1
 240 666 l 1,7,-1
 409 666 l 1,8,-1
 409 740 l 1,9,-1
 507 740 l 1,10,-1
 507 666 l 1,11,-1
 576 666 l 1,12,-1
 576 596 l 1,13,-1
 507 596 l 1,14,-1
 507 0 l 1,15,-1
 223 0 l 2,16,17
 70 0 70 0 70 154 c 2,0,-1
167 144 m 2,18,19
 167 85 167 85 226 85 c 2,20,-1
 409 85 l 1,21,-1
 409 437 l 1,22,-1
 226 437 l 2,23,24
 167 437 167 437 167 379 c 2,25,-1
 167 144 l 2,18,19
EndSplineSet
EndChar

StartChar: dotlessi
Encoding: 224 305 224
Width: 253
Flags: W
LayerCount: 2
Fore
SplineSet
78 0 m 1,0,-1
 78 522 l 1,1,-1
 175 522 l 1,2,-1
 175 0 l 1,3,-1
 78 0 l 1,0,-1
EndSplineSet
EndChar

StartChar: Lslash
Encoding: 233 321 233
Width: 554
Flags: W
LayerCount: 2
Fore
SplineSet
10 289 m 1,0,-1
 103 342 l 1,1,-1
 103 690 l 1,2,-1
 205 690 l 1,3,-1
 205 401 l 1,4,-1
 335 476 l 1,5,-1
 375 407 l 1,6,-1
 205 310 l 1,7,-1
 205 92 l 1,8,-1
 530 92 l 1,9,-1
 530 0 l 1,10,-1
 103 0 l 1,11,-1
 103 251 l 1,12,-1
 50 220 l 1,13,-1
 10 289 l 1,0,-1
EndSplineSet
EndChar

StartChar: lslash
Encoding: 234 322 234
Width: 293
Flags: W
LayerCount: 2
Fore
SplineSet
0 339 m 1,0,-1
 86 388 l 1,1,-1
 86 740 l 1,2,-1
 183 740 l 1,3,-1
 183 444 l 1,4,-1
 254 486 l 1,5,-1
 291 420 l 1,6,-1
 183 359 l 1,7,-1
 183 147 l 2,8,9
 183 81 183 81 252 76 c 1,10,-1
 252 -9 l 1,11,12
 86 -9 86 -9 86 157 c 2,13,-1
 86 302 l 1,14,-1
 38 274 l 1,15,-1
 0 339 l 1,0,-1
EndSplineSet
EndChar

StartChar: OE
Encoding: 245 338 245
Width: 966
Flags: W
LayerCount: 2
Fore
SplineSet
78 158 m 2,0,-1
 78 532 l 2,1,2
 78 690 78 690 235 690 c 2,3,-1
 916 690 l 1,4,-1
 916 598 l 1,5,-1
 586 598 l 1,6,-1
 586 406 l 1,7,-1
 886 406 l 1,8,-1
 886 314 l 1,9,-1
 586 314 l 1,10,-1
 586 92 l 1,11,-1
 916 92 l 1,12,-1
 916 0 l 1,13,-1
 235 0 l 2,14,15
 78 0 78 0 78 158 c 2,0,-1
180 149 m 2,16,17
 180 92 180 92 236 92 c 2,18,-1
 484 92 l 1,19,-1
 484 598 l 1,20,-1
 236 598 l 2,21,22
 180 598 180 598 180 541 c 2,23,-1
 180 149 l 2,16,17
EndSplineSet
EndChar

StartChar: oe
Encoding: 246 339 246
Width: 912
Flags: W
LayerCount: 2
Fore
SplineSet
70 154 m 2,0,-1
 70 369 l 2,1,2
 70 522 70 522 223 522 c 2,3,-1
 351 522 l 2,4,5
 421 522 421 522 461 482 c 1,6,7
 501 522 501 522 571 522 c 2,8,-1
 689 522 l 2,9,10
 843 522 843 522 843 369 c 2,11,-1
 843 221 l 1,12,-1
 510 221 l 1,13,-1
 510 144 l 2,14,15
 510 85 510 85 568 85 c 2,16,-1
 823 85 l 1,17,-1
 823 34 l 1,18,-1
 777 0 l 1,19,-1
 571 0 l 2,20,21
 501 0 501 0 461 40 c 1,22,23
 421 0 421 0 351 0 c 2,24,-1
 223 0 l 2,25,26
 70 0 70 0 70 154 c 2,0,-1
167 144 m 2,27,28
 167 85 167 85 226 85 c 2,29,-1
 354 85 l 2,30,31
 412 85 412 85 412 144 c 2,32,-1
 412 379 l 2,33,34
 412 437 412 437 354 437 c 2,35,-1
 226 437 l 2,36,37
 167 437 167 437 167 379 c 2,38,-1
 167 144 l 2,27,28
510 303 m 1,39,-1
 745 303 l 1,40,-1
 745 379 l 2,41,42
 745 437 745 437 687 437 c 2,43,-1
 568 437 l 2,44,45
 510 437 510 437 510 379 c 2,46,-1
 510 303 l 1,39,-1
EndSplineSet
EndChar

StartChar: florin
Encoding: 278 402 278
Width: 572
Flags: W
LayerCount: 2
Fore
SplineSet
40 -62 m 1,0,-1
 129 -62 l 2,1,2
 188 -62 188 -62 188 -3 c 2,3,-1
 188 586 l 2,4,5
 188 740 188 740 341 740 c 2,6,-1
 434 740 l 1,7,-1
 480 706 l 1,8,-1
 480 655 l 1,9,-1
 344 655 l 2,10,11
 285 655 285 655 285 596 c 2,12,-1
 285 522 l 1,13,-1
 470 522 l 1,14,-1
 470 437 l 1,15,-1
 285 437 l 1,16,-1
 285 7 l 2,17,18
 285 -147 285 -147 131 -147 c 2,19,-1
 86 -147 l 1,20,-1
 40 -112 l 1,21,-1
 40 -62 l 1,0,-1
EndSplineSet
EndChar

StartChar: uni0237
Encoding: 283 567 283
Width: 253
Flags: W
LayerCount: 2
Fore
SplineSet
-9 -124 m 1,0,1
 78 -120 78 -120 78 -36 c 2,2,-1
 78 522 l 1,3,-1
 175 522 l 1,4,-1
 175 -25 l 2,5,6
 175 -209 175 -209 -9 -209 c 1,7,-1
 -9 -124 l 1,0,1
EndSplineSet
EndChar

StartChar: uni0300
Encoding: 293 768 293
Width: 0
Flags: W
LayerCount: 2
Fore
SplineSet
-408 714 m 1,0,-1
 -349 769 l 1,1,-1
 -218 621 l 1,2,-1
 -268 573 l 1,3,-1
 -408 714 l 1,0,-1
EndSplineSet
EndChar

StartChar: uni0301
Encoding: 294 769 294
Width: 0
Flags: W
LayerCount: 2
Fore
SplineSet
-356 621 m 1,0,-1
 -225 769 l 1,1,-1
 -166 714 l 1,2,-1
 -306 573 l 1,3,-1
 -356 621 l 1,0,-1
EndSplineSet
EndChar

StartChar: uni0302
Encoding: 295 770 295
Width: 0
Flags: W
LayerCount: 2
Fore
SplineSet
-431 629 m 1,0,-1
 -287 769 l 1,1,-1
 -144 629 l 1,2,-1
 -188 581 l 1,3,-1
 -287 675 l 1,4,-1
 -386 581 l 1,5,-1
 -431 629 l 1,0,-1
EndSplineSet
EndChar

StartChar: uni0303
Encoding: 296 771 296
Width: 0
Flags: W
LayerCount: 2
Fore
SplineSet
-450 642 m 1,0,-1
 -391 701 l 2,1,2
 -370 722 -370 722 -339 722 c 128,-1,3
 -308 722 -308 722 -287 701 c 2,4,-1
 -250 664 l 2,5,6
 -243 657 -243 657 -236 657 c 128,-1,7
 -229 657 -229 657 -222 664 c 2,8,-1
 -170 716 l 1,9,-1
 -125 671 l 1,10,-1
 -184 612 l 2,11,12
 -205 591 -205 591 -236 591 c 128,-1,13
 -267 591 -267 591 -288 612 c 2,14,-1
 -325 649 l 2,15,16
 -332 656 -332 656 -339 656 c 128,-1,17
 -346 656 -346 656 -353 649 c 2,18,-1
 -405 597 l 1,19,-1
 -450 642 l 1,0,-1
EndSplineSet
EndChar

StartChar: uni0304
Encoding: 297 772 297
Width: 0
Flags: W
LayerCount: 2
Fore
SplineSet
-422 623 m 1,0,-1
 -422 696 l 1,1,-1
 -152 696 l 1,2,-1
 -152 623 l 1,3,-1
 -422 623 l 1,0,-1
EndSplineSet
EndChar

StartChar: uni0306
Encoding: 298 774 298
Width: 0
Flags: W
LayerCount: 2
Fore
SplineSet
-416 673 m 2,0,-1
 -416 733 l 1,1,-1
 -354 733 l 1,2,-1
 -354 674 l 2,3,4
 -354 659 -354 659 -339 659 c 2,5,-1
 -235 659 l 2,6,7
 -220 659 -220 659 -220 674 c 2,8,-1
 -220 733 l 1,9,-1
 -158 733 l 1,10,-1
 -158 673 l 2,11,12
 -158 597 -158 597 -234 597 c 2,13,-1
 -340 597 l 2,14,15
 -416 597 -416 597 -416 673 c 2,0,-1
EndSplineSet
EndChar

StartChar: uni0307
Encoding: 299 775 299
Width: 0
Flags: W
LayerCount: 2
Fore
SplineSet
-338 614 m 1,0,-1
 -338 719 l 1,1,-1
 -236 719 l 1,2,-1
 -236 614 l 1,3,-1
 -338 614 l 1,0,-1
EndSplineSet
EndChar

StartChar: uni0308
Encoding: 300 776 300
Width: 0
Flags: W
LayerCount: 2
Fore
SplineSet
-426 611 m 1,0,-1
 -426 710 l 1,1,-1
 -334 710 l 1,2,-1
 -334 611 l 1,3,-1
 -426 611 l 1,0,-1
-240 611 m 1,4,-1
 -240 710 l 1,5,-1
 -148 710 l 1,6,-1
 -148 611 l 1,7,-1
 -240 611 l 1,4,-1
EndSplineSet
EndChar

StartChar: uni030A
Encoding: 301 778 301
Width: 0
Flags: W
LayerCount: 2
Fore
SplineSet
-393 644 m 2,0,-1
 -393 701 l 2,1,2
 -393 774 -393 774 -320 774 c 2,3,-1
 -254 774 l 2,4,5
 -181 774 -181 774 -181 701 c 2,6,-1
 -181 644 l 2,7,8
 -181 571 -181 571 -254 571 c 2,9,-1
 -320 571 l 2,10,11
 -393 571 -393 571 -393 644 c 2,0,-1
-334 640 m 2,12,13
 -334 624 -334 624 -317 624 c 2,14,-1
 -257 624 l 2,15,16
 -241 624 -241 624 -241 640 c 2,17,-1
 -241 705 l 2,18,19
 -241 721 -241 721 -257 721 c 2,20,-1
 -317 721 l 2,21,22
 -334 721 -334 721 -334 705 c 2,23,-1
 -334 640 l 2,12,13
EndSplineSet
EndChar

StartChar: uni030B
Encoding: 302 779 302
Width: 0
Flags: W
LayerCount: 2
Fore
SplineSet
-426 616 m 1,0,-1
 -313 769 l 1,1,-1
 -251 720 l 1,2,-1
 -374 573 l 1,3,-1
 -426 616 l 1,0,-1
-255 616 m 1,4,-1
 -142 769 l 1,5,-1
 -80 720 l 1,6,-1
 -203 573 l 1,7,-1
 -255 616 l 1,4,-1
EndSplineSet
EndChar

StartChar: uni030C
Encoding: 303 780 303
Width: 0
Flags: W
LayerCount: 2
Fore
SplineSet
-431 712 m 1,0,-1
 -386 759 l 1,1,-1
 -287 666 l 1,2,-1
 -188 759 l 1,3,-1
 -144 712 l 1,4,-1
 -287 571 l 1,5,-1
 -431 712 l 1,0,-1
EndSplineSet
EndChar

StartChar: uni0326
Encoding: 304 806 304
Width: 0
Flags: W
LayerCount: 2
Fore
SplineSet
-363 -182 m 1,0,-1
 -331 -50 l 1,1,-1
 -250 -50 l 1,2,-1
 -240 -66 l 1,3,-1
 -296 -202 l 1,4,-1
 -363 -182 l 1,0,-1
EndSplineSet
EndChar

StartChar: uni0327
Encoding: 305 807 305
Width: 0
Flags: W
LayerCount: 2
Fore
SplineSet
-398 -112 m 1,0,-1
 -297 -112 l 2,1,2
 -271 -112 -271 -112 -271 -86 c 2,3,-1
 -271 42 l 1,4,-1
 -195 42 l 1,5,-1
 -195 -75 l 2,6,7
 -195 -182 -195 -182 -302 -182 c 2,8,-1
 -361 -182 l 1,9,-1
 -398 -153 l 1,10,-1
 -398 -112 l 1,0,-1
EndSplineSet
EndChar

StartChar: uni0328
Encoding: 306 808 306
Width: 0
Flags: W
LayerCount: 2
Fore
SplineSet
-368 -38 m 2,0,1
 -368 69 -368 69 -261 69 c 2,2,-1
 -238 69 l 1,3,-1
 -238 0 l 1,4,-1
 -265 0 l 2,5,6
 -291 0 -291 0 -291 -26 c 2,7,-1
 -291 -86 l 2,8,9
 -291 -112 -291 -112 -265 -112 c 2,10,-1
 -169 -112 l 1,11,-1
 -169 -153 l 1,12,-1
 -205 -182 l 1,13,-1
 -261 -182 l 2,14,15
 -368 -182 -368 -182 -368 -75 c 2,16,-1
 -368 -38 l 2,0,1
EndSplineSet
EndChar

StartChar: pi
Encoding: 307 960 307
Width: 592
Flags: W
LayerCount: 2
Fore
SplineSet
78 0 m 1,0,-1
 78 522 l 1,1,-1
 515 522 l 1,2,-1
 515 0 l 1,3,-1
 417 0 l 1,4,-1
 417 437 l 1,5,-1
 175 437 l 1,6,-1
 175 0 l 1,7,-1
 78 0 l 1,0,-1
EndSplineSet
EndChar

StartChar: uni1E9E
Encoding: 308 7838 308
Width: 689
Flags: W
LayerCount: 2
Fore
SplineSet
82 0 m 1,0,-1
 82 532 l 2,1,2
 82 690 82 690 239 690 c 2,3,-1
 569 690 l 1,4,-1
 569 610 l 1,5,-1
 417 406 l 1,6,-1
 474 406 l 2,7,8
 632 406 632 406 632 248 c 2,9,-1
 632 158 l 2,10,11
 632 0 632 0 474 0 c 2,12,-1
 330 0 l 1,13,-1
 278 40 l 1,14,-1
 278 92 l 1,15,-1
 473 92 l 2,16,17
 530 92 530 92 530 149 c 2,18,-1
 530 257 l 2,19,20
 530 314 530 314 473 314 c 2,21,-1
 295 314 l 1,22,-1
 295 394 l 1,23,-1
 447 598 l 1,24,-1
 240 598 l 2,25,26
 184 598 184 598 184 541 c 2,27,-1
 184 0 l 1,28,-1
 82 0 l 1,0,-1
EndSplineSet
EndChar

StartChar: endash
Encoding: 309 8211 309
Width: 580
Flags: W
LayerCount: 2
Fore
SplineSet
40 263 m 1,0,-1
 40 347 l 1,1,-1
 540 347 l 1,2,-1
 540 263 l 1,3,-1
 40 263 l 1,0,-1
EndSplineSet
EndChar

StartChar: emdash
Encoding: 310 8212 310
Width: 1000
Flags: W
LayerCount: 2
Fore
SplineSet
40 263 m 1,0,-1
 40 347 l 1,1,-1
 960 347 l 1,2,-1
 960 263 l 1,3,-1
 40 263 l 1,0,-1
EndSplineSet
EndChar

StartChar: quoteleft
Encoding: 311 8216 311
Width: 265
Flags: W
LayerCount: 2
Fore
SplineSet
53 506 m 1,0,-1
 147 753 l 1,1,-1
 220 735 l 1,2,-1
 158 490 l 1,3,-1
 63 490 l 1,4,-1
 53 506 l 1,0,-1
EndSplineSet
EndChar

StartChar: quoteright
Encoding: 312 8217 312
Width: 265
Flags: W
LayerCount: 2
Fore
SplineSet
49 495 m 1,0,-1
 111 740 l 1,1,-1
 205 740 l 1,2,-1
 216 724 l 1,3,-1
 121 477 l 1,4,-1
 49 495 l 1,0,-1
EndSplineSet
EndChar

StartChar: quotesinglbase
Encoding: 313 8218 313
Width: 265
Flags: W
LayerCount: 2
Fore
SplineSet
29 -125 m 1,0,-1
 91 120 l 1,1,-1
 185 120 l 1,2,-1
 196 104 l 1,3,-1
 102 -143 l 1,4,-1
 29 -125 l 1,0,-1
EndSplineSet
EndChar

StartChar: dagger
Encoding: 317 8224 317
Width: 492
Flags: W
LayerCount: 2
Fore
SplineSet
50 413 m 1,0,-1
 50 497 l 1,1,-1
 202 497 l 1,2,-1
 202 690 l 1,3,-1
 291 690 l 1,4,-1
 291 497 l 1,5,-1
 442 497 l 1,6,-1
 442 413 l 1,7,-1
 291 413 l 1,8,-1
 291 -100 l 1,9,-1
 202 -100 l 1,10,-1
 202 413 l 1,11,-1
 50 413 l 1,0,-1
EndSplineSet
EndChar

StartChar: daggerdbl
Encoding: 318 8225 318
Width: 492
Flags: W
LayerCount: 2
Fore
SplineSet
50 93 m 1,0,-1
 50 177 l 1,1,-1
 202 177 l 1,2,-1
 202 413 l 1,3,-1
 50 413 l 1,4,-1
 50 497 l 1,5,-1
 202 497 l 1,6,-1
 202 690 l 1,7,-1
 291 690 l 1,8,-1
 291 497 l 1,9,-1
 442 497 l 1,10,-1
 442 413 l 1,11,-1
 291 413 l 1,12,-1
 291 177 l 1,13,-1
 442 177 l 1,14,-1
 442 93 l 1,15,-1
 291 93 l 1,16,-1
 291 -100 l 1,17,-1
 202 -100 l 1,18,-1
 202 93 l 1,19,-1
 50 93 l 1,0,-1
EndSplineSet
EndChar

StartChar: bullet
Encoding: 319 8226 319
Width: 362
Flags: W
LayerCount: 2
Fore
SplineSet
75 254 m 1,0,-1
 75 466 l 1,1,-1
 287 466 l 1,2,-1
 287 254 l 1,3,-1
 75 254 l 1,0,-1
EndSplineSet
EndChar

StartChar: guilsinglleft
Encoding: 322 8249 322
Width: 314
Flags: W
LayerCount: 2
Fore
SplineSet
30 315 m 1,0,-1
 212 544 l 1,1,-1
 274 494 l 1,2,-1
 136 315 l 1,3,-1
 274 136 l 1,4,-1
 212 86 l 1,5,-1
 30 315 l 1,0,-1
EndSplineSet
EndChar

StartChar: guilsinglright
Encoding: 323 8250 323
Width: 314
Flags: W
LayerCount: 2
Fore
SplineSet
40 136 m 1,0,-1
 178 315 l 1,1,-1
 40 494 l 1,2,-1
 101 544 l 1,3,-1
 284 315 l 1,4,-1
 101 86 l 1,5,-1
 40 136 l 1,0,-1
EndSplineSet
EndChar

StartChar: fraction
Encoding: 324 8260 324
Width: 143
Flags: W
LayerCount: 2
Fore
SplineSet
-130 33 m 1,0,-1
 200 693 l 1,1,-1
 272 657 l 1,2,-1
 -58 -3 l 1,3,-1
 -130 33 l 1,0,-1
EndSplineSet
EndChar

StartChar: uni2070
Encoding: 325 8304 325
Width: 362
Flags: W
LayerCount: 2
Fore
SplineSet
38 385 m 2,0,-1
 38 583 l 2,1,2
 38 690 38 690 145 690 c 2,3,-1
 217 690 l 2,4,5
 324 690 324 690 324 583 c 2,6,-1
 324 385 l 2,7,8
 324 278 324 278 217 278 c 2,9,-1
 145 278 l 2,10,11
 38 278 38 278 38 385 c 2,0,-1
115 374 m 2,12,13
 115 348 115 348 141 348 c 2,14,-1
 220 348 l 2,15,16
 246 348 246 348 246 374 c 2,17,-1
 246 594 l 2,18,19
 246 620 246 620 220 620 c 2,20,-1
 141 620 l 2,21,22
 115 620 115 620 115 594 c 2,23,-1
 115 374 l 2,12,13
EndSplineSet
EndChar

StartChar: uni2074
Encoding: 326 8308 326
Width: 362
Flags: W
LayerCount: 2
Fore
SplineSet
38 344 m 1,0,-1
 38 408 l 1,1,-1
 168 690 l 1,2,-1
 236 690 l 1,3,-1
 246 674 l 1,4,-1
 125 414 l 1,5,-1
 246 414 l 1,6,-1
 246 535 l 1,7,-1
 324 535 l 1,8,-1
 324 278 l 1,9,-1
 246 278 l 1,10,-1
 246 344 l 1,11,-1
 38 344 l 1,0,-1
EndSplineSet
EndChar

StartChar: Euro
Encoding: 332 8364 332
Width: 578
Flags: W
LayerCount: 2
Fore
SplineSet
31 238 m 1,0,-1
 31 309 l 1,1,-1
 100 309 l 1,2,-1
 100 381 l 1,3,-1
 31 381 l 1,4,-1
 31 452 l 1,5,-1
 100 452 l 1,6,-1
 100 532 l 2,7,8
 100 690 100 690 258 690 c 2,9,-1
 485 690 l 1,10,-1
 537 650 l 1,11,-1
 537 598 l 1,12,-1
 259 598 l 2,13,14
 202 598 202 598 202 541 c 2,15,-1
 202 452 l 1,16,-1
 463 452 l 1,17,-1
 463 381 l 1,18,-1
 202 381 l 1,19,-1
 202 309 l 1,20,-1
 419 309 l 1,21,-1
 419 238 l 1,22,-1
 202 238 l 1,23,-1
 202 149 l 2,24,25
 202 92 202 92 259 92 c 2,26,-1
 537 92 l 1,27,-1
 537 40 l 1,28,-1
 485 0 l 1,29,-1
 258 0 l 2,30,31
 100 0 100 0 100 158 c 2,32,-1
 100 238 l 1,33,-1
 31 238 l 1,0,-1
EndSplineSet
EndChar

StartChar: uni20BA
Encoding: 333 8378 333
Width: 578
Flags: W
LayerCount: 2
Fore
SplineSet
23 306 m 1,0,-1
 120 345 l 1,1,-1
 120 413 l 1,2,-1
 50 385 l 1,3,-1
 23 451 l 1,4,-1
 120 490 l 1,5,-1
 120 690 l 1,6,-1
 222 690 l 1,7,-1
 222 531 l 1,8,-1
 405 604 l 1,9,-1
 431 538 l 1,10,-1
 222 454 l 1,11,-1
 222 386 l 1,12,-1
 405 459 l 1,13,-1
 431 393 l 1,14,-1
 222 310 l 1,15,-1
 222 92 l 1,16,-1
 274 92 l 2,17,18
 430 92 430 92 430 248 c 2,19,-1
 430 300 l 1,20,-1
 528 300 l 1,21,-1
 528 260 l 2,22,23
 528 0 528 0 268 0 c 2,24,-1
 120 0 l 1,25,-1
 120 268 l 1,26,-1
 50 240 l 1,27,-1
 23 306 l 1,0,-1
EndSplineSet
EndChar

StartChar: uni20BD
Encoding: 334 8381 334
Width: 578
Flags: W
LayerCount: 2
Fore
SplineSet
40 155 m 1,0,-1
 40 236 l 1,1,-1
 90 236 l 1,2,-1
 90 302 l 1,3,-1
 40 302 l 1,4,-1
 40 388 l 1,5,-1
 90 388 l 1,6,-1
 90 690 l 1,7,-1
 370 690 l 2,8,9
 528 690 528 690 528 532 c 2,10,-1
 528 460 l 2,11,12
 528 302 528 302 370 302 c 2,13,-1
 192 302 l 1,14,-1
 192 236 l 1,15,-1
 402 236 l 1,16,-1
 402 155 l 1,17,-1
 192 155 l 1,18,-1
 192 0 l 1,19,-1
 90 0 l 1,20,-1
 90 155 l 1,21,-1
 40 155 l 1,0,-1
192 388 m 1,22,-1
 369 388 l 2,23,24
 426 388 426 388 426 444 c 2,25,-1
 426 541 l 2,26,27
 426 598 426 598 369 598 c 2,28,-1
 192 598 l 1,29,-1
 192 388 l 1,22,-1
EndSplineSet
EndChar

StartChar: trademark
Encoding: 336 8482 336
Width: 786
Flags: W
LayerCount: 2
Fore
SplineSet
20 625 m 1,0,-1
 20 690 l 1,1,-1
 306 690 l 1,2,-1
 306 625 l 1,3,-1
 200 625 l 1,4,-1
 200 338 l 1,5,-1
 127 338 l 1,6,-1
 127 625 l 1,7,-1
 20 625 l 1,0,-1
351 338 m 1,8,-1
 351 690 l 1,9,-1
 438 690 l 1,10,-1
 540 474 l 1,11,-1
 641 690 l 1,12,-1
 728 690 l 1,13,-1
 728 338 l 1,14,-1
 655 338 l 1,15,-1
 655 563 l 1,16,-1
 570 381 l 1,17,-1
 509 381 l 1,18,-1
 424 563 l 1,19,-1
 424 338 l 1,20,-1
 351 338 l 1,8,-1
EndSplineSet
EndChar

StartChar: Omega
Encoding: 337 8486 337
Width: 702
Flags: W
LayerCount: 2
Fore
SplineSet
58 0 m 1,0,-1
 58 92 l 1,1,-1
 170 92 l 1,2,-1
 112 171 l 2,3,4
 78 216 78 216 78 274 c 2,5,-1
 78 532 l 2,6,7
 78 690 78 690 235 690 c 2,8,-1
 467 690 l 2,9,10
 625 690 625 690 625 532 c 2,11,-1
 625 274 l 2,12,13
 625 216 625 216 591 171 c 2,14,-1
 532 92 l 1,15,-1
 645 92 l 1,16,-1
 645 0 l 1,17,-1
 408 0 l 1,18,-1
 408 81 l 1,19,-1
 502 206 l 2,20,21
 523 234 523 234 523 271 c 2,22,-1
 523 541 l 2,23,24
 523 598 523 598 466 598 c 2,25,-1
 236 598 l 2,26,27
 180 598 180 598 180 541 c 2,28,-1
 180 271 l 2,29,30
 180 234 180 234 201 206 c 2,31,-1
 295 81 l 1,32,-1
 295 0 l 1,33,-1
 58 0 l 1,0,-1
EndSplineSet
EndChar

StartChar: estimated
Encoding: 338 8494 338
Width: 880
Flags: W
LayerCount: 2
Fore
SplineSet
60 345 m 128,-1,1
 60 494 60 494 171.5 599.5 c 128,-1,2
 283 705 283 705 440 705 c 128,-1,3
 597 705 597 705 708.5 599.5 c 128,-1,4
 820 494 820 494 820 325 c 1,5,-1
 200 325 l 1,6,-1
 200 127 l 1,7,8
 305 25 305 25 440 25 c 128,-1,9
 575 25 575 25 687 133 c 1,10,-1
 719 100 l 1,11,12
 597 -15 597 -15 440 -15 c 128,-1,13
 283 -15 283 -15 171.5 90.5 c 128,-1,0
 60 196 60 196 60 345 c 128,-1,1
200 365 m 1,14,-1
 680 365 l 1,15,-1
 680 563 l 1,16,17
 575 665 575 665 440 665 c 128,-1,18
 305 665 305 665 200 563 c 1,19,-1
 200 365 l 1,14,-1
EndSplineSet
EndChar

StartChar: partialdiff
Encoding: 339 8706 339
Width: 580
Flags: W
LayerCount: 2
Fore
SplineSet
70 154 m 2,0,-1
 70 312 l 2,1,2
 70 466 70 466 223 466 c 2,3,-1
 409 466 l 1,4,-1
 409 522 l 2,5,6
 409 655 409 655 276 655 c 2,7,-1
 114 655 l 1,8,-1
 114 706 l 1,9,-1
 160 740 l 1,10,-1
 274 740 l 2,11,12
 507 740 507 740 507 507 c 2,13,-1
 507 154 l 2,14,15
 507 0 507 0 353 0 c 2,16,-1
 223 0 l 2,17,18
 70 0 70 0 70 154 c 2,0,-1
167 144 m 2,19,20
 167 85 167 85 226 85 c 2,21,-1
 351 85 l 2,22,23
 409 85 409 85 409 144 c 2,24,-1
 409 381 l 1,25,-1
 226 381 l 2,26,27
 167 381 167 381 167 322 c 2,28,-1
 167 144 l 2,19,20
EndSplineSet
EndChar

StartChar: Delta
Encoding: 340 8710 340
Width: 651
Flags: W
LayerCount: 2
Fore
SplineSet
19 21 m 1,0,-1
 243 690 l 1,1,-1
 408 690 l 1,2,-1
 631 21 l 1,3,-1
 618 0 l 1,4,-1
 33 0 l 1,5,-1
 19 21 l 1,0,-1
146 92 m 1,6,-1
 505 92 l 1,7,-1
 338 598 l 1,8,-1
 313 598 l 1,9,-1
 146 92 l 1,6,-1
EndSplineSet
EndChar

StartChar: product
Encoding: 341 8719 341
Width: 702
Flags: W
LayerCount: 2
Fore
SplineSet
88 -100 m 1,0,-1
 88 690 l 1,1,-1
 615 690 l 1,2,-1
 615 -100 l 1,3,-1
 513 -100 l 1,4,-1
 513 598 l 1,5,-1
 190 598 l 1,6,-1
 190 -100 l 1,7,-1
 88 -100 l 1,0,-1
EndSplineSet
EndChar

StartChar: summation
Encoding: 342 8721 342
Width: 586
Flags: W
LayerCount: 2
Fore
SplineSet
50 -20 m 1,0,-1
 271 295 l 1,1,-1
 50 610 l 1,2,-1
 50 690 l 1,3,-1
 536 690 l 1,4,-1
 536 598 l 1,5,-1
 174 598 l 1,6,-1
 386 295 l 1,7,-1
 174 -8 l 1,8,-1
 536 -8 l 1,9,-1
 536 -100 l 1,10,-1
 50 -100 l 1,11,-1
 50 -20 l 1,0,-1
EndSplineSet
EndChar

StartChar: minus
Encoding: 343 8722 343
Width: 578
Flags: W
LayerCount: 2
Fore
SplineSet
63 293 m 1,0,-1
 63 377 l 1,1,-1
 515 377 l 1,2,-1
 515 293 l 1,3,-1
 63 293 l 1,0,-1
EndSplineSet
EndChar

StartChar: radical
Encoding: 346 8730 346
Width: 590
Flags: W
LayerCount: 2
Fore
SplineSet
20 326 m 1,0,-1
 20 400 l 1,1,-1
 177 400 l 1,2,-1
 276 103 l 1,3,-1
 514 792 l 1,4,-1
 589 766 l 1,5,-1
 318 -10 l 1,6,-1
 229 -10 l 1,7,-1
 114 326 l 1,8,-1
 20 326 l 1,0,-1
EndSplineSet
EndChar

StartChar: infinity
Encoding: 347 8734 347
Width: 611
Flags: W
LayerCount: 2
Fore
SplineSet
38 289 m 2,0,-1
 38 381 l 2,1,2
 38 488 38 488 144 488 c 2,3,-1
 239 488 l 2,4,5
 266 488 266 488 283 471 c 2,6,-1
 306 448 l 1,7,-1
 329 471 l 2,8,9
 346 488 346 488 373 488 c 2,10,-1
 467 488 l 2,11,12
 574 488 574 488 574 381 c 2,13,-1
 574 289 l 2,14,15
 574 182 574 182 467 182 c 2,16,-1
 373 182 l 2,17,18
 346 182 346 182 329 199 c 2,19,-1
 306 222 l 1,20,-1
 283 199 l 2,21,22
 266 182 266 182 239 182 c 2,23,-1
 144 182 l 2,24,25
 38 182 38 182 38 289 c 2,0,-1
115 278 m 2,26,27
 115 252 115 252 141 252 c 2,28,-1
 241 252 l 2,29,30
 267 252 267 252 267 278 c 2,31,-1
 267 392 l 2,32,33
 267 418 267 418 241 418 c 2,34,-1
 141 418 l 2,35,36
 115 418 115 418 115 392 c 2,37,-1
 115 278 l 2,26,27
344 278 m 2,38,39
 344 252 344 252 370 252 c 2,40,-1
 470 252 l 2,41,42
 496 252 496 252 496 278 c 2,43,-1
 496 392 l 2,44,45
 496 418 496 418 470 418 c 2,46,-1
 370 418 l 2,47,48
 344 418 344 418 344 392 c 2,49,-1
 344 278 l 2,38,39
EndSplineSet
EndChar

StartChar: integral
Encoding: 348 8747 348
Width: 437
Flags: W
LayerCount: 2
Fore
SplineSet
20 -115 m 1,0,-1
 111 -115 l 2,1,2
 170 -115 170 -115 170 -56 c 2,3,-1
 170 586 l 2,4,5
 170 740 170 740 324 740 c 2,6,-1
 371 740 l 1,7,-1
 417 706 l 1,8,-1
 417 655 l 1,9,-1
 326 655 l 2,10,11
 267 655 267 655 267 596 c 2,12,-1
 267 -46 l 2,13,14
 267 -200 267 -200 114 -200 c 2,15,-1
 66 -200 l 1,16,-1
 20 -166 l 1,17,-1
 20 -115 l 1,0,-1
EndSplineSet
EndChar

StartChar: notequal
Encoding: 350 8800 350
Width: 578
Flags: W
LayerCount: 2
Fore
SplineSet
63 183 m 1,0,-1
 63 267 l 1,1,-1
 211 267 l 1,2,-1
 280 403 l 1,3,-1
 63 403 l 1,4,-1
 63 487 l 1,5,-1
 323 487 l 1,6,-1
 384 608 l 1,7,-1
 453 573 l 1,8,-1
 410 487 l 1,9,-1
 515 487 l 1,10,-1
 515 403 l 1,11,-1
 367 403 l 1,12,-1
 298 267 l 1,13,-1
 515 267 l 1,14,-1
 515 183 l 1,15,-1
 255 183 l 1,16,-1
 194 62 l 1,17,-1
 125 97 l 1,18,-1
 168 183 l 1,19,-1
 63 183 l 1,0,-1
EndSplineSet
EndChar

StartChar: lessequal
Encoding: 351 8804 351
Width: 578
Flags: W
LayerCount: 2
Fore
SplineSet
63 0 m 1,0,-1
 63 84 l 1,1,-1
 515 84 l 1,2,-1
 515 0 l 1,3,-1
 63 0 l 1,0,-1
64 324 m 1,4,-1
 64 418 l 1,5,-1
 481 618 l 1,6,-1
 517 542 l 1,7,-1
 152 371 l 1,8,-1
 517 200 l 1,9,-1
 481 125 l 1,10,-1
 64 324 l 1,4,-1
EndSplineSet
EndChar

StartChar: greaterequal
Encoding: 352 8805 352
Width: 578
Flags: W
LayerCount: 2
Fore
SplineSet
63 0 m 1,0,-1
 63 84 l 1,1,-1
 515 84 l 1,2,-1
 515 0 l 1,3,-1
 63 0 l 1,0,-1
61 200 m 1,4,-1
 426 371 l 1,5,-1
 61 542 l 1,6,-1
 97 618 l 1,7,-1
 514 418 l 1,8,-1
 514 324 l 1,9,-1
 97 125 l 1,10,-1
 61 200 l 1,4,-1
EndSplineSet
EndChar

StartChar: lozenge
Encoding: 353 9674 353
Width: 578
Flags: W
LayerCount: 2
Fore
SplineSet
46 345 m 1,0,-1
 244 690 l 1,1,-1
 334 690 l 1,2,-1
 532 345 l 1,3,-1
 334 0 l 1,4,-1
 244 0 l 1,5,-1
 46 345 l 1,0,-1
136 345 m 1,6,-1
 289 77 l 1,7,-1
 442 345 l 1,8,-1
 289 613 l 1,9,-1
 136 345 l 1,6,-1
EndSplineSet
EndChar

StartChar: uniF000
Encoding: 354 61440 354
Width: 700
Flags: W
LayerCount: 2
Fore
SplineSet
50 605 m 1,0,-1
 650 605 l 1,1,-1
 350 85 l 1,2,-1
 50 605 l 1,0,-1
EndSplineSet
EndChar

StartChar: .notdef
Encoding: 357 -1 357
Width: 588
Flags: W
LayerCount: 2
Fore
SplineSet
90 0 m 1,0,-1
 90 740 l 1,1,-1
 499 740 l 1,2,-1
 499 0 l 1,3,-1
 90 0 l 1,0,-1
149 59 m 1,4,-1
 440 59 l 1,5,-1
 440 681 l 1,6,-1
 149 681 l 1,7,-1
 149 59 l 1,4,-1
EndSplineSet
EndChar

StartChar: uni030C.alt
Encoding: 358 -1 358
Width: 0
Flags: W
LayerCount: 2
Fore
SplineSet
-58 589 m 1,0,-1
 -23 762 l 1,1,-1
 47 762 l 1,2,-1
 58 746 l 1,3,-1
 1 575 l 1,4,-1
 -58 589 l 1,0,-1
EndSplineSet
EndChar

StartChar: uni0326.alt
Encoding: 359 -1 359
Width: 0
Flags: W
LayerCount: 2
Fore
SplineSet
-37 612 m 1,0,-1
 18 748 l 1,1,-1
 85 729 l 1,2,-1
 54 596 l 1,3,-1
 -27 596 l 1,4,-1
 -37 612 l 1,0,-1
EndSplineSet
EndChar

StartChar: uni0300.cap
Encoding: 360 -1 360
Width: 0
Flags: W
LayerCount: 2
Fore
SplineSet
-444 871 m 1,0,-1
 -385 927 l 1,1,-1
 -254 778 l 1,2,-1
 -304 731 l 1,3,-1
 -444 871 l 1,0,-1
EndSplineSet
EndChar

StartChar: uni0301.cap
Encoding: 361 -1 361
Width: 0
Flags: W
LayerCount: 2
Fore
SplineSet
-392 778 m 1,0,-1
 -261 927 l 1,1,-1
 -202 871 l 1,2,-1
 -342 731 l 1,3,-1
 -392 778 l 1,0,-1
EndSplineSet
EndChar

StartChar: uni0302.cap
Encoding: 362 -1 362
Width: 0
Flags: W
LayerCount: 2
Fore
SplineSet
-467 786 m 1,0,-1
 -323 927 l 1,1,-1
 -179 786 l 1,2,-1
 -224 739 l 1,3,-1
 -323 833 l 1,4,-1
 -422 739 l 1,5,-1
 -467 786 l 1,0,-1
EndSplineSet
EndChar

StartChar: uni0303.cap
Encoding: 363 -1 363
Width: 0
Flags: W
LayerCount: 2
Fore
SplineSet
-485 800 m 1,0,-1
 -426 859 l 2,1,2
 -405 880 -405 880 -374 880 c 128,-1,3
 -343 880 -343 880 -322 859 c 2,4,-1
 -285 822 l 2,5,6
 -278 815 -278 815 -271 815 c 128,-1,7
 -264 815 -264 815 -257 822 c 2,8,-1
 -205 874 l 1,9,-1
 -160 829 l 1,10,-1
 -219 770 l 2,11,12
 -240 749 -240 749 -271 749 c 128,-1,13
 -302 749 -302 749 -323 770 c 2,14,-1
 -360 807 l 2,15,16
 -367 814 -367 814 -374 814 c 128,-1,17
 -381 814 -381 814 -388 807 c 2,18,-1
 -440 755 l 1,19,-1
 -485 800 l 1,0,-1
EndSplineSet
EndChar

StartChar: uni0304.cap
Encoding: 364 -1 364
Width: 0
Flags: W
LayerCount: 2
Fore
SplineSet
-458 780 m 1,0,-1
 -458 854 l 1,1,-1
 -188 854 l 1,2,-1
 -188 780 l 1,3,-1
 -458 780 l 1,0,-1
EndSplineSet
EndChar

StartChar: uni0306.cap
Encoding: 365 -1 365
Width: 0
Flags: W
LayerCount: 2
Fore
SplineSet
-452 831 m 2,0,-1
 -452 891 l 1,1,-1
 -390 891 l 1,2,-1
 -390 832 l 2,3,4
 -390 817 -390 817 -375 817 c 2,5,-1
 -271 817 l 2,6,7
 -256 817 -256 817 -256 832 c 2,8,-1
 -256 891 l 1,9,-1
 -194 891 l 1,10,-1
 -194 831 l 2,11,12
 -194 755 -194 755 -270 755 c 2,13,-1
 -376 755 l 2,14,15
 -452 755 -452 755 -452 831 c 2,0,-1
EndSplineSet
EndChar

StartChar: uni0307.cap
Encoding: 366 -1 366
Width: 0
Flags: W
LayerCount: 2
Fore
SplineSet
-374 772 m 1,0,-1
 -374 876 l 1,1,-1
 -272 876 l 1,2,-1
 -272 772 l 1,3,-1
 -374 772 l 1,0,-1
EndSplineSet
EndChar

StartChar: uni0308.cap
Encoding: 367 -1 367
Width: 0
Flags: W
LayerCount: 2
Fore
SplineSet
-462 769 m 1,0,-1
 -462 867 l 1,1,-1
 -370 867 l 1,2,-1
 -370 769 l 1,3,-1
 -462 769 l 1,0,-1
-276 769 m 1,4,-1
 -276 867 l 1,5,-1
 -184 867 l 1,6,-1
 -184 769 l 1,7,-1
 -276 769 l 1,4,-1
EndSplineSet
EndChar

StartChar: uni030A.cap
Encoding: 368 -1 368
Width: 0
Flags: W
LayerCount: 2
Fore
SplineSet
-429 802 m 2,0,-1
 -429 858 l 2,1,2
 -429 931 -429 931 -356 931 c 2,3,-1
 -290 931 l 2,4,5
 -217 931 -217 931 -217 858 c 2,6,-1
 -217 802 l 2,7,8
 -217 729 -217 729 -290 729 c 2,9,-1
 -356 729 l 2,10,11
 -429 729 -429 729 -429 802 c 2,0,-1
-369 798 m 2,12,13
 -369 781 -369 781 -353 781 c 2,14,-1
 -293 781 l 2,15,16
 -277 781 -277 781 -277 798 c 2,17,-1
 -277 862 l 2,18,19
 -277 879 -277 879 -293 879 c 2,20,-1
 -353 879 l 2,21,22
 -369 879 -369 879 -369 862 c 2,23,-1
 -369 798 l 2,12,13
EndSplineSet
EndChar

StartChar: uni030B.cap
Encoding: 369 -1 369
Width: 0
Flags: W
LayerCount: 2
Fore
SplineSet
-462 773 m 1,0,-1
 -349 927 l 1,1,-1
 -286 878 l 1,2,-1
 -410 731 l 1,3,-1
 -462 773 l 1,0,-1
-291 773 m 1,4,-1
 -178 927 l 1,5,-1
 -116 878 l 1,6,-1
 -239 731 l 1,7,-1
 -291 773 l 1,4,-1
EndSplineSet
EndChar

StartChar: uni030C.cap
Encoding: 370 -1 370
Width: 0
Flags: W
LayerCount: 2
Fore
SplineSet
-467 870 m 1,0,-1
 -422 917 l 1,1,-1
 -323 823 l 1,2,-1
 -224 917 l 1,3,-1
 -179 870 l 1,4,-1
 -323 729 l 1,5,-1
 -467 870 l 1,0,-1
EndSplineSet
EndChar

StartChar: zero.zero
Encoding: 371 -1 371
Width: 578
Flags: W
LayerCount: 2
Fore
SplineSet
60 158 m 2,0,-1
 60 532 l 2,1,2
 60 690 60 690 218 690 c 2,3,-1
 360 690 l 2,4,5
 518 690 518 690 518 532 c 2,6,-1
 518 158 l 2,7,8
 518 0 518 0 360 0 c 2,9,-1
 218 0 l 2,10,11
 60 0 60 0 60 158 c 2,0,-1
162 149 m 2,12,13
 162 92 162 92 219 92 c 2,14,-1
 359 92 l 2,15,16
 416 92 416 92 416 149 c 2,17,-1
 416 541 l 2,18,19
 416 598 416 598 359 598 c 2,20,-1
 219 598 l 2,21,22
 162 598 162 598 162 541 c 2,23,-1
 162 149 l 2,12,13
241 283 m 1,24,-1
 241 407 l 1,25,-1
 337 407 l 1,26,-1
 337 283 l 1,27,-1
 241 283 l 1,24,-1
EndSplineSet
EndChar

